<?xml version="1.0" encoding="utf-8"?>
<!-- Generator: Adobe Illustrator 16.0.2, SVG Export Plug-In . SVG Version: 6.00 Build 0)  -->
<!DOCTYPE svg PUBLIC "-//W3C//DTD SVG 1.1//EN" "http://www.w3.org/Graphics/SVG/1.1/DTD/svg11.dtd">
<svg version="1.1" id="Layer_1" xmlns="http://www.w3.org/2000/svg" xmlns:xlink="http://www.w3.org/1999/xlink" x="0px" y="0px"
	 width="841.89px" height="1190.55px" viewBox="0 0 841.89 1190.55" enable-background="new 0 0 841.89 1190.55"
	 xml:space="preserve">
<g>
	<path fill="none" stroke="#278A2A" stroke-width="4" stroke-miterlimit="10" d="M292.705,658.361l17.539-4.507l15.685,61.049
		c3.925-13.403,12.928-21.915,27.012-25.534c14.083-3.617,27.215-1.827,39.395,5.373s19.987,17.488,23.424,30.859
		c3.402,13.244,1.507,25.972-5.686,38.184c-7.191,12.213-17.83,20.127-31.912,23.746c-14.084,3.618-26.084,0.469-36-9.448
		l3.909,15.214l-17.539,4.506L292.705,658.361z M332.152,739.128l3.835,14.924c2.757,5.903,7.171,10.623,13.244,14.157
		c7.94,4.641,16.238,5.848,24.896,3.623c8.656-2.224,15.376-7.358,20.161-15.406c4.784-8.047,5.966-16.785,3.542-26.218
		c-2.439-9.496-7.704-16.649-15.791-21.458c-8.088-4.807-16.46-6.101-25.116-3.877c-8.657,2.225-15.434,7.479-20.329,15.761
		C333.185,726.399,331.706,732.564,332.152,739.128z"/>
</g>
<g>
	<path fill="#40A629" d="M445.067,708.004l-17.681,81.445l-16.039-3.482l17.68-81.445L445.067,708.004z M450.329,684.838
		c1.71,2.58,2.281,5.178,1.714,7.791c-0.593,2.732-2.203,4.918-4.829,6.557c-2.627,1.639-5.573,2.104-8.84,1.393
		c-3.386-0.734-5.92-2.389-7.601-4.961c-1.681-2.574-2.225-5.227-1.631-7.959c0.567-2.613,2.149-4.744,4.746-6.389
		c2.596-1.643,5.588-2.1,8.974-1.363C446.128,680.615,448.617,682.26,450.329,684.838z"/>
</g>
<g>
	<path d="M506.62,696.381c12.401,2.556,21.945,8.95,28.634,19.184c6.687,10.233,8.822,21.21,6.406,32.933
		c-2.393,11.609-8.686,20.805-18.879,27.588c-10.195,6.785-21.492,8.898-33.895,6.343c-12.288-2.532-21.815-8.938-28.58-19.218
		c-6.768-10.278-8.954-21.222-6.562-32.831c2.415-11.722,8.76-20.952,19.033-27.689C483.051,695.951,494.332,693.849,506.62,696.381
		z M482.193,714.369c-6.774,4.509-11.018,10.924-12.733,19.248c-1.704,8.269-0.331,15.782,4.12,22.544s10.498,10.93,18.143,12.506
		c7.588,1.563,14.777,0.123,21.568-4.322c6.788-4.445,11.035-10.801,12.74-19.068c1.715-8.324,0.338-15.898-4.128-22.723
		c-4.469-6.823-10.496-11.019-18.084-12.582C496.174,708.396,488.966,709.863,482.193,714.369z"/>
</g>
<g>
	<path fill="#4D1F03" d="M250.003,429.648c0,0,0.057,1.383,0.162,3.976c0.096,2.593,0.281,6.396,0.432,11.237
		c0.152,4.84,0.336,10.718,0.549,17.46c0.191,6.742,0.409,14.349,0.572,22.647c0.187,8.298,0.389,17.288,0.517,26.796
		c0.146,9.508,0.332,19.535,0.403,29.908c0.078,10.373,0.246,21.091,0.26,31.982c0.033,10.891,0.068,21.955,0.104,33.02
		c-0.033,11.064-0.068,22.129-0.102,33.02c-0.001,10.892-0.178,21.61-0.255,31.982c-0.073,10.373-0.251,20.4-0.401,29.908
		c-0.13,9.508-0.328,18.498-0.518,26.796c-0.164,8.299-0.381,15.905-0.574,22.647c-0.213,6.742-0.398,12.62-0.552,17.461
		c-0.15,4.84-0.336,8.644-0.434,11.236c-0.106,2.594-0.163,3.977-0.163,3.977s-0.057-1.383-0.163-3.977
		c-0.098-2.593-0.283-6.396-0.434-11.236c-0.153-4.841-0.339-10.719-0.552-17.461c-0.193-6.742-0.41-14.349-0.574-22.647
		c-0.189-8.298-0.388-17.288-0.518-26.796c-0.15-9.508-0.328-19.535-0.401-29.908c-0.077-10.372-0.254-21.091-0.255-31.982
		c-0.033-10.891-0.068-21.955-0.102-33.02c0.035-11.064,0.07-22.129,0.104-33.02c0.014-10.892,0.182-21.61,0.26-31.982
		c0.071-10.373,0.258-20.4,0.403-29.908c0.128-9.508,0.33-18.498,0.517-26.796c0.163-8.298,0.381-15.905,0.572-22.647
		c0.213-6.742,0.396-12.62,0.549-17.46c0.15-4.841,0.336-8.644,0.432-11.237C249.946,431.031,250.003,429.648,250.003,429.648z"/>
</g>
<g>
	<path fill="#4D1F03" d="M274.327,406.676c0,0,0.057,1.673,0.162,4.811c0.1,3.137,0.246,7.739,0.432,13.596
		c0.152,5.857,0.336,12.969,0.549,21.126c0.191,8.158,0.409,17.361,0.572,27.401c0.187,10.04,0.389,20.917,0.517,32.421
		c0.146,11.504,0.332,23.636,0.403,36.186c0.078,12.55,0.246,25.519,0.26,38.697c0.033,13.178,0.068,26.564,0.104,39.951
		c-0.033,13.387-0.068,26.773-0.102,39.951c-0.001,13.178-0.178,26.146-0.255,38.696c-0.073,12.55-0.251,24.682-0.401,36.186
		c-0.13,11.505-0.328,22.381-0.518,32.421c-0.165,10.041-0.381,19.244-0.574,27.401c-0.213,8.158-0.398,15.27-0.552,21.126
		c-0.187,5.857-0.333,10.459-0.434,13.597c-0.106,3.138-0.163,4.811-0.163,4.811s-0.057-1.673-0.163-4.811
		c-0.101-3.138-0.247-7.739-0.434-13.597c-0.153-5.856-0.339-12.968-0.552-21.126c-0.193-8.157-0.409-17.36-0.574-27.401
		c-0.189-10.04-0.388-20.916-0.518-32.421c-0.15-11.504-0.328-23.636-0.401-36.186c-0.077-12.551-0.254-25.519-0.255-38.696
		c-0.033-13.178-0.068-26.564-0.102-39.951c0.035-13.387,0.07-26.773,0.104-39.951c0.014-13.178,0.182-26.146,0.26-38.697
		c0.071-12.55,0.258-24.682,0.403-36.186c0.128-11.504,0.33-22.381,0.517-32.421c0.163-10.04,0.381-19.244,0.572-27.401
		c0.213-8.157,0.396-15.269,0.549-21.126c0.186-5.856,0.332-10.458,0.432-13.596C274.271,408.349,274.327,406.676,274.327,406.676z"
		/>
</g>
<g>
	<path fill="#4D1F03" d="M158.11,606.676c0,0,1.066-1.304,3.066-3.749c2.003-2.44,4.941-6.021,8.682-10.577
		c3.766-4.535,8.338-10.041,13.582-16.356c5.26-6.302,11.193-13.414,17.721-21.122c6.512-7.725,13.564-16.092,21.09-24.886
		c7.511-8.806,15.408-18.113,23.668-27.663c8.255-9.553,16.719-19.482,25.439-29.467c8.704-10,17.546-20.158,26.388-30.315
		c8.894-10.113,17.788-20.226,26.543-30.18c8.73-9.976,17.455-19.678,25.826-29.129c8.369-9.454,16.54-18.521,24.274-27.131
		c7.719-8.625,15.073-16.729,21.867-24.206c6.775-7.493,13.034-14.319,18.585-20.367c5.563-6.036,10.415-11.298,14.409-15.631
		c4.021-4.311,7.18-7.698,9.334-10.008c2.158-2.306,3.31-3.535,3.31-3.535s-1.065,1.304-3.064,3.75
		c-2.003,2.441-4.941,6.022-8.681,10.579c-3.765,4.535-8.336,10.042-13.58,16.358c-5.258,6.304-11.192,13.414-17.72,21.124
		c-6.508,7.727-13.565,16.091-21.089,24.886c-7.508,8.809-15.41,18.112-23.669,27.662c-8.257,9.552-16.714,19.487-25.442,29.465
		c-8.705,9.999-17.548,20.156-26.391,30.313c-8.895,10.112-17.789,20.225-26.545,30.179c-8.738,9.968-17.456,19.676-25.829,29.126
		c-8.368,9.455-16.545,18.517-24.276,27.131c-7.717,8.625-15.074,16.728-21.865,24.206c-6.774,7.494-13.035,14.318-18.584,20.369
		c-5.563,6.036-10.414,11.299-14.408,15.633c-4.02,4.312-7.178,7.699-9.332,10.01C159.262,605.445,158.11,606.676,158.11,606.676z"
		/>
</g>
<g>
	<path fill="#4D1F03" d="M174.327,558.027c0,0,0.955-0.975,2.744-2.804c1.797-1.822,4.4-4.526,7.775-7.906
		c3.371-3.381,7.467-7.486,12.163-12.196c4.711-4.694,10.024-9.992,15.872-15.716c5.832-5.742,12.149-11.962,18.891-18.479
		c6.729-6.53,13.801-13.439,21.201-20.499c7.396-7.064,14.979-14.428,22.791-21.795c7.799-7.383,15.721-14.883,23.643-22.383
		c7.969-7.45,15.938-14.9,23.783-22.233c7.822-7.357,15.642-14.469,23.144-21.42c7.499-6.955,14.822-13.598,21.755-19.912
		c6.916-6.329,13.508-12.259,19.598-17.726c6.072-5.486,11.683-10.468,16.658-14.881c4.987-4.4,9.336-8.235,12.917-11.395
		c3.579-3.16,6.438-5.594,8.367-7.275c1.935-1.674,2.968-2.567,2.968-2.567s-0.955,0.976-2.744,2.805
		c-1.796,1.823-4.4,4.528-7.773,7.908c-3.371,3.381-7.465,7.487-12.162,12.197c-4.709,4.697-10.023,9.992-15.87,15.718
		c-5.829,5.745-12.149,11.961-18.89,18.479c-6.726,6.533-13.805,13.437-21.203,20.498c-7.396,7.063-14.973,14.434-22.794,21.792
		c-7.799,7.382-15.722,14.881-23.644,22.381c-7.971,7.449-15.94,14.898-23.785,22.231c-7.83,7.349-15.644,14.468-23.146,21.418
		c-7.498,6.956-14.826,13.594-21.756,19.911c-6.916,6.33-13.51,12.256-19.598,17.726c-6.071,5.487-11.684,10.468-16.656,14.883
		c-4.987,4.4-9.336,8.237-12.916,11.396c-3.578,3.161-6.438,5.595-8.365,7.277C175.358,557.134,174.327,558.027,174.327,558.027z"/>
</g>
<g>
	<path fill="#4D1F03" d="M364.868,312.081c0,0,0.988,0.862,2.843,2.478c1.849,1.622,4.589,3.97,8.018,7.021
		c3.431,3.049,7.596,6.751,12.374,10.998c4.764,4.262,10.14,9.068,15.953,14.366c5.83,5.281,12.145,11.001,18.766,17.115
		c6.633,6.1,13.649,12.509,20.825,19.227c7.18,6.713,14.66,13.587,22.15,20.687c7.507,7.083,15.132,14.279,22.758,21.475
		c7.578,7.246,15.155,14.492,22.615,21.625c7.481,7.109,14.724,14.234,21.797,21.059c7.076,6.823,13.842,13.497,20.271,19.812
		c6.443,6.3,12.483,12.31,18.054,17.864c5.588,5.536,10.665,10.656,15.163,15.198c4.485,4.555,8.396,8.526,11.616,11.796
		c3.222,3.269,5.707,5.885,7.422,7.648c1.708,1.77,2.619,2.713,2.619,2.713s-0.989-0.861-2.844-2.477
		c-1.849-1.622-4.59-3.969-8.02-7.02c-3.431-3.048-7.597-6.75-12.375-10.997c-4.767-4.259-10.141-9.068-15.955-14.364
		c-5.832-5.278-12.144-11.002-18.766-17.114c-6.636-6.097-13.647-12.512-20.824-19.229c-7.179-6.714-14.665-13.582-22.148-20.689
		c-7.506-7.084-15.131-14.281-22.755-21.478c-7.577-7.247-15.155-14.494-22.613-21.627c-7.475-7.117-14.723-14.235-21.795-21.062
		c-7.077-6.822-13.838-13.501-20.27-19.813c-6.443-6.298-12.48-12.312-18.054-17.863c-5.589-5.534-10.665-10.657-15.165-15.196
		c-4.486-4.554-8.396-8.524-11.617-11.794c-3.223-3.268-5.708-5.884-7.424-7.647C365.779,313.024,364.868,312.081,364.868,312.081z"
		/>
</g>
<g>
	<path fill="#4D1F03" d="M351.354,318.838c0,0,1.115,0.779,3.209,2.239c2.087,1.467,5.176,3.584,9.053,6.347
		c3.881,2.761,8.592,6.114,13.995,9.96c5.392,3.862,11.476,8.218,18.066,13.029c6.606,4.792,13.763,9.984,21.279,15.544
		c7.528,5.545,15.486,11.367,23.646,17.486c8.164,6.114,16.652,12.362,25.182,18.837c8.542,6.458,17.221,13.018,25.898,19.578
		c8.637,6.615,17.273,13.229,25.775,19.741c8.521,6.486,16.8,13.009,24.869,19.246c8.072,6.234,15.81,12.347,23.158,18.128
		c7.361,5.765,14.275,11.274,20.653,16.366c6.393,5.072,12.214,9.772,17.372,13.942c5.146,4.184,9.633,7.831,13.328,10.835
		c3.696,3.002,6.56,5.415,8.529,7.036c1.965,1.628,3.013,2.497,3.013,2.497s-1.116-0.778-3.21-2.238
		c-2.088-1.466-5.176-3.583-9.055-6.346c-3.88-2.76-8.592-6.113-13.996-9.958c-5.393-3.86-11.476-8.218-18.067-13.027
		c-6.608-4.79-13.762-9.985-21.28-15.543c-7.53-5.542-15.484-11.37-23.645-17.488c-8.162-6.115-16.656-12.356-25.179-18.84
		c-8.542-6.458-17.22-13.019-25.897-19.58c-8.636-6.615-17.271-13.231-25.772-19.744c-8.515-6.495-16.8-13.01-24.868-19.249
		c-8.072-6.233-15.805-12.352-23.156-18.129c-7.362-5.763-14.273-11.276-20.654-16.366c-6.394-5.071-12.213-9.773-17.373-13.94
		c-5.146-4.183-9.635-7.83-13.33-10.833c-3.696-3.001-6.56-5.414-8.53-7.035C352.401,319.706,351.354,318.838,351.354,318.838z"/>
</g>
<g>
	<path fill="#4D1F03" d="M378.382,294.514c0,0,1.108,1.207,3.188,3.471c2.075,2.268,5.119,5.593,8.992,9.826
		c3.848,4.254,8.52,9.421,13.879,15.347c5.344,5.939,11.373,12.639,17.895,19.996c6.539,7.342,13.624,15.295,21.052,23.764
		c7.442,8.457,15.313,17.354,23.365,26.636c8.057,9.278,16.448,18.809,24.855,28.596c8.423,9.773,16.979,19.701,25.537,29.629
		c8.504,9.973,17.009,19.946,25.381,29.764c8.396,9.796,16.525,19.552,24.464,28.931c7.942,9.376,15.537,18.511,22.754,27.161
		c7.232,8.636,14.014,16.849,20.268,24.437c6.272,7.571,11.974,14.551,17.024,20.743c5.036,6.202,9.427,11.609,13.043,16.063
		c3.591,4.475,6.411,7.991,8.334,10.389c1.919,2.401,2.942,3.682,2.942,3.682s-1.109-1.207-3.189-3.47
		c-2.075-2.267-5.119-5.593-8.993-9.824c-3.848-4.254-8.521-9.419-13.88-15.345c-5.347-5.938-11.375-12.639-17.897-19.995
		c-6.542-7.339-13.623-15.296-21.052-23.764c-7.445-8.454-15.312-17.355-23.364-26.637c-8.056-9.279-16.454-18.804-24.852-28.599
		c-8.423-9.773-16.979-19.703-25.535-29.631c-8.504-9.974-17.008-19.948-25.379-29.766c-8.388-9.803-16.523-19.553-24.462-28.933
		c-7.942-9.375-15.532-18.515-22.752-27.162c-7.233-8.635-14.012-16.852-20.268-24.436c-6.273-7.569-11.973-14.553-17.025-20.741
		c-5.038-6.202-9.43-11.608-13.046-16.061c-3.591-4.475-6.413-7.99-8.336-10.387C379.405,295.794,378.382,294.514,378.382,294.514z"
		/>
</g>
<g>
	<path fill="#4D1F03" d="M577.029,378.297c0,0,0.216,7.137,0.594,19.626c0.151,6.245,0.337,13.827,0.549,22.525
		c0.191,8.698,0.409,18.511,0.572,29.216c0.187,10.705,0.389,22.303,0.517,34.569c0.146,12.267,0.332,25.202,0.403,38.583
		c0.078,13.381,0.247,27.209,0.259,41.26c0.035,14.051,0.069,28.325,0.104,42.598c-0.034,14.273-0.067,28.547-0.102,42.598
		c-0.001,14.051-0.179,27.878-0.255,41.26c-0.073,13.382-0.251,26.317-0.402,38.583c-0.129,12.267-0.326,23.864-0.517,34.569
		c-0.165,10.705-0.38,20.519-0.574,29.217c-0.213,8.697-0.398,16.28-0.552,22.525c-0.38,12.489-0.597,19.626-0.597,19.626
		s-0.217-7.137-0.597-19.626c-0.153-6.245-0.339-13.828-0.552-22.525c-0.194-8.698-0.409-18.512-0.574-29.217
		c-0.19-10.705-0.388-22.303-0.517-34.569c-0.151-12.266-0.329-25.201-0.402-38.583c-0.076-13.382-0.254-27.209-0.255-41.26
		c-0.034-14.051-0.067-28.324-0.102-42.598c0.035-14.273,0.069-28.547,0.104-42.598c0.012-14.051,0.181-27.878,0.259-41.26
		c0.071-13.381,0.258-26.317,0.403-38.583c0.128-12.266,0.33-23.864,0.517-34.569c0.163-10.705,0.381-20.519,0.572-29.216
		c0.212-8.698,0.397-16.281,0.549-22.525C576.813,385.434,577.029,378.297,577.029,378.297z"/>
</g>
<g>
	<path fill="#4D1F03" d="M608.111,397.892c0,0-0.673,6.858-1.851,18.861c-0.625,5.996-1.384,13.278-2.255,21.63
		c-0.891,8.35-1.894,17.77-3.063,28.037c-1.146,10.27-2.386,21.396-3.783,33.152c-1.379,11.759-2.803,24.164-4.395,36.98
		c-1.585,12.817-3.136,26.074-4.87,39.522c-1.711,13.453-3.45,27.119-5.189,40.784c-1.808,13.657-3.614,27.314-5.394,40.758
		c-1.747,13.447-3.642,26.659-5.38,39.457c-1.735,12.798-3.52,25.155-5.193,36.876c-1.652,11.724-3.289,22.798-4.809,33.02
		c-1.493,10.225-2.926,19.59-4.2,27.89c-1.292,8.297-2.418,15.53-3.346,21.488c-1.929,11.904-3.03,18.707-3.03,18.707
		s0.672-6.858,1.847-18.861c0.625-5.996,1.383-13.277,2.253-21.63c0.888-8.35,1.894-17.77,3.061-28.037
		c1.142-10.271,2.387-21.396,3.783-33.152c1.374-11.76,2.805-24.163,4.396-36.98c1.587-12.817,3.129-26.074,4.874-39.522
		c1.713-13.452,3.452-27.118,5.192-40.783c1.809-13.657,3.616-27.313,5.396-40.757c1.759-13.447,3.644-26.66,5.384-39.457
		c1.734-12.798,3.525-25.155,5.195-36.876c1.65-11.724,3.292-22.798,4.808-33.02c1.492-10.225,2.927-19.589,4.198-27.89
		c1.291-8.297,2.416-15.531,3.343-21.488C607.011,404.694,608.111,397.892,608.111,397.892z"/>
</g>
<g>
	<path fill="#4D1F03" d="M228.556,402.194c0,0,0.363,1.636,1.045,4.704c0.674,3.069,1.664,7.57,2.924,13.298
		c1.227,5.735,2.717,12.698,4.425,20.686c1.688,7.992,3.595,17.007,5.603,26.856c2.029,9.845,4.229,20.51,6.47,31.806
		c2.259,11.293,4.673,23.196,7.052,35.531c2.385,12.334,4.936,25.064,7.371,38.027c2.457,12.961,4.953,26.126,7.449,39.291
		c2.429,13.179,4.857,26.356,7.248,39.329c2.422,12.967,4.633,25.76,6.865,38.122c2.236,12.362,4.293,24.332,6.26,35.68
		c1.988,11.343,3.795,22.082,5.455,31.995c1.684,9.909,3.164,19.005,4.474,27.067c1.291,8.065,2.417,15.098,3.344,20.889
		c0.894,5.797,1.595,10.352,2.073,13.457c0.473,3.106,0.725,4.764,0.725,4.764s-0.363-1.636-1.045-4.704
		c-0.675-3.068-1.666-7.569-2.926-13.298c-1.229-5.734-2.719-12.698-4.428-20.686c-1.691-7.991-3.596-17.007-5.604-26.855
		c-2.033-9.845-4.229-20.511-6.471-31.807c-2.264-11.292-4.671-23.196-7.051-35.531c-2.383-12.335-4.942-25.063-7.367-38.028
		c-2.456-12.96-4.951-26.126-7.447-39.292c-2.427-13.178-4.854-26.356-7.244-39.328c-2.411-12.969-4.631-25.76-6.861-38.124
		c-2.238-12.362-4.287-24.333-6.259-35.68c-1.989-11.343-3.792-22.083-5.454-31.996c-1.687-9.909-3.165-19.005-4.477-27.066
		c-1.293-8.065-2.418-15.097-3.346-20.888c-0.895-5.797-1.598-10.352-2.076-13.458C228.809,403.851,228.556,402.194,228.556,402.194
		z"/>
</g>
<g>
	<path fill="#4D1F03" d="M174.327,733.703c0,0,1.654,0.693,4.757,1.993c3.094,1.316,7.669,3.16,13.481,5.513
		c5.822,2.332,12.937,5.049,21.109,8.113c4.107,1.482,8.453,3.118,13.084,4.709c2.309,0.813,4.677,1.646,7.101,2.498
		c2.433,0.829,4.921,1.677,7.462,2.542c10.182,3.414,21.256,6.973,33.035,10.51c11.762,3.592,24.276,6.999,37.226,10.48
		c6.501,1.644,13.084,3.417,19.809,4.968c3.356,0.799,6.732,1.604,10.126,2.412c3.402,0.766,6.822,1.536,10.256,2.309
		c6.854,1.608,13.822,2.949,20.79,4.421c3.481,0.751,7.001,1.343,10.507,2.023c3.511,0.655,7.024,1.312,10.539,1.968
		c3.521,0.609,7.045,1.219,10.563,1.827c3.521,0.601,7.028,1.252,10.554,1.759c3.52,0.539,7.033,1.076,10.535,1.612
		c1.752,0.266,3.501,0.531,5.247,0.797c1.751,0.23,3.499,0.462,5.243,0.692c6.98,0.893,13.891,1.907,20.75,2.645
		c6.854,0.785,13.62,1.626,20.301,2.185c6.676,0.616,13.237,1.277,19.677,1.71c3.218,0.242,6.401,0.482,9.547,0.719
		c1.572,0.118,3.136,0.235,4.689,0.353c1.555,0.082,3.1,0.163,4.635,0.243c6.141,0.313,12.114,0.616,17.893,0.91
		c5.785,0.184,11.374,0.362,16.739,0.533c1.342,0.043,2.67,0.085,3.982,0.127c1.314,0.009,2.613,0.018,3.898,0.026
		c2.569,0.021,5.079,0.042,7.526,0.062c2.448,0.028,4.833,0.055,7.151,0.081c1.16,0.014,2.303,0.026,3.429,0.039
		c1.126-0.015,2.234-0.029,3.325-0.044c4.365-0.059,8.451-0.114,12.229-0.165c3.779-0.048,7.254-0.035,10.386-0.191
		c12.546-0.413,19.715-0.648,19.715-0.648s-7.146,0.669-19.651,1.84c-3.127,0.321-6.6,0.49-10.378,0.736
		c-3.781,0.224-7.87,0.466-12.239,0.724c-1.093,0.063-2.203,0.125-3.331,0.188c-1.128,0.036-2.273,0.073-3.435,0.11
		c-2.325,0.074-4.716,0.15-7.17,0.229c-2.455,0.07-4.974,0.144-7.552,0.217c-1.289,0.035-2.594,0.07-3.912,0.106
		c-1.318,0.003-2.651,0.006-3.999,0.009c-5.391,0.011-11.007,0.022-16.819,0.035c-5.812-0.084-11.817-0.299-17.995-0.449
		c-1.544-0.044-3.099-0.087-4.664-0.131c-1.563-0.079-3.137-0.159-4.72-0.239c-3.167-0.16-6.372-0.322-9.612-0.486
		c-6.488-0.246-13.089-0.88-19.813-1.38c-6.729-0.463-13.544-1.207-20.45-1.896c-6.915-0.617-13.877-1.566-20.902-2.455
		c-1.756-0.223-3.516-0.446-5.278-0.671c-1.758-0.258-3.52-0.516-5.283-0.774c-3.527-0.522-7.064-1.046-10.608-1.57
		c-3.55-0.493-7.083-1.131-10.628-1.718c-3.543-0.598-7.09-1.196-10.637-1.794c-3.533-0.678-7.066-1.354-10.595-2.031
		c-3.524-0.702-7.063-1.315-10.562-2.088c-7.004-1.514-14.006-2.897-20.893-4.549c-3.449-0.798-6.885-1.594-10.303-2.385
		c-3.4-0.863-6.784-1.722-10.147-2.575c-6.738-1.659-13.332-3.539-19.843-5.287c-12.983-3.64-25.458-7.423-37.188-11.311
		c-5.881-1.893-11.559-3.86-17.049-5.769c-5.471-1.965-10.756-3.859-15.797-5.767c-10.108-3.745-19.253-7.494-27.335-10.855
		c-8.071-3.396-15.036-6.516-20.739-9.148c-5.705-2.632-10.133-4.815-13.147-6.309C175.935,734.499,174.327,733.703,174.327,733.703
		z"/>
</g>
<g>
	<path fill="#4D1F03" d="M179.732,783.703c0,0,2.071,0.229,5.955,0.658c3.887,0.396,9.587,0.978,16.842,1.718
		c7.255,0.725,16.071,1.546,26.181,2.47c10.113,0.907,21.527,1.857,33.979,2.858c12.454,0.974,25.954,1.923,40.231,2.87
		c14.279,0.932,29.348,1.74,44.934,2.504c15.588,0.762,31.705,1.285,48.078,1.752c16.375,0.436,33.014,0.648,49.647,0.592
		c16.634,0.003,33.268-0.241,49.624-0.838c16.355-0.629,32.444-1.402,47.979-2.623c15.533-1.223,30.526-2.687,44.688-4.512
		c14.158-1.844,27.496-3.956,39.728-6.326c12.228-2.391,23.357-4.987,33.13-7.643c9.779-2.635,18.178-5.389,25.032-7.833
		c3.414-1.258,6.476-2.355,9.087-3.444c2.623-1.057,4.873-1.924,6.642-2.748c3.571-1.584,5.477-2.429,5.477-2.429
		s-1.856,0.947-5.339,2.724c-1.728,0.922-3.926,1.91-6.497,3.112c-2.554,1.243-5.567,2.487-8.939,3.899
		c-6.765,2.759-15.073,5.935-24.816,8.922c-9.723,3.046-20.825,6.081-33.069,8.812c-12.236,2.76-25.601,5.277-39.814,7.39
		c-14.21,2.137-29.258,3.966-44.868,5.341c-15.607,1.38-31.763,2.514-48.198,3.147c-16.433,0.666-33.136,0.992-49.836,1.045
		c-16.701-0.014-33.397-0.297-49.823-0.803c-16.427-0.493-32.576-1.354-48.194-2.274c-15.62-0.91-30.699-2.092-44.984-3.317
		c-14.289-1.204-27.777-2.558-40.217-3.904c-12.439-1.328-23.825-2.713-33.906-4.002c-10.085-1.269-18.857-2.518-26.078-3.563
		c-7.223-1.034-12.882-1.958-16.741-2.575C181.789,784.044,179.732,783.703,179.732,783.703z"/>
</g>
<g>
	<path fill="#4D1F03" d="M179.732,835.054c0,0,30.632-5.546,76.579-13.864c11.475-2.124,23.904-4.426,37.053-6.86
		c13.135-2.492,26.985-5.119,41.314-7.837c14.326-2.725,29.098-5.698,44.117-8.657c15.017-2.98,30.252-6.101,45.459-9.337
		c15.221-3.179,30.417-6.464,45.34-9.85c14.915-3.416,29.598-6.755,43.739-10.259c14.139-3.507,27.786-6.979,40.659-10.511
		c12.868-3.55,24.985-7.078,36.085-10.598c11.092-3.542,21.183-7.024,30.008-10.421c8.816-3.416,16.397-6.675,22.465-9.72
		c6.06-3.055,10.686-5.731,13.708-7.766c0.779-0.476,1.424-0.957,1.983-1.368c0.562-0.409,1.034-0.753,1.415-1.03
		c0.763-0.556,1.156-0.842,1.156-0.842s-0.376,0.309-1.104,0.907c-0.364,0.299-0.817,0.671-1.355,1.113
		c-0.537,0.443-1.155,0.965-1.906,1.485c-2.919,2.2-7.376,5.211-13.34,8.555c-11.908,6.728-29.849,14.603-51.935,22.353
		c-11.037,3.9-23.096,7.823-35.944,11.637c-12.843,3.837-26.447,7.667-40.597,11.327c-14.148,3.663-28.791,7.356-43.743,10.784
		c-14.945,3.459-30.158,6.83-45.397,10.07c-15.253,3.174-30.527,6.231-45.58,9.148c-15.049,2.939-29.904,5.586-44.276,8.159
		c-14.371,2.58-28.295,4.889-41.501,7.051c-13.204,2.181-25.709,4.107-37.258,5.848c-11.544,1.764-22.143,3.272-31.54,4.586
		c-9.394,1.333-17.598,2.401-24.353,3.282c-6.754,0.893-12.072,1.51-15.693,1.954C181.665,834.824,179.732,835.054,179.732,835.054z
		"/>
</g>
<g>
	<path fill="#4D1F03" d="M378.382,848.567c0,0,4.142-1.888,11.39-5.189c3.617-1.66,8.01-3.675,13.048-5.986
		c5.025-2.332,10.694-4.964,16.879-7.835c6.164-2.905,12.842-6.053,19.905-9.383c7.031-3.387,14.445-6.959,22.115-10.654
		c3.816-1.883,7.695-3.797,11.623-5.735c3.913-1.963,7.873-3.95,11.866-5.954c3.988-2.009,8.008-4.034,12.011-6.129
		c2.006-1.04,4.015-2.082,6.025-3.126l6.002-3.195c8.038-4.2,15.996-8.543,23.779-12.905c3.876-2.205,7.723-4.393,11.522-6.554
		c3.765-2.219,7.483-4.411,11.142-6.567c3.614-2.227,7.167-4.416,10.646-6.559c3.435-2.206,6.851-4.292,10.08-6.456
		c6.48-4.301,12.539-8.47,18.021-12.472c2.702-2.049,5.343-3.957,7.768-5.874c2.416-1.934,4.708-3.768,6.862-5.49
		c2.079-1.813,4.025-3.509,5.825-5.077c0.45-0.393,0.903-0.768,1.325-1.153c0.413-0.396,0.817-0.783,1.212-1.162
		c0.791-0.758,1.544-1.48,2.26-2.167c0.717-0.687,1.395-1.337,2.033-1.949c0.32-0.305,0.631-0.602,0.931-0.888
		c0.282-0.302,0.555-0.594,0.817-0.875c1.054-1.128,1.95-2.088,2.677-2.866c1.458-1.561,2.235-2.393,2.235-2.393
		s-0.69,0.904-1.984,2.601c-1.31,1.685-3.121,4.268-5.845,7.193c-0.662,0.75-1.359,1.539-2.092,2.367
		c-0.366,0.414-0.741,0.839-1.125,1.271c-0.393,0.424-0.814,0.836-1.234,1.269c-1.7,1.711-3.539,3.562-5.504,5.539
		c-2.053,1.886-4.237,3.893-6.539,6.008c-1.133,1.085-2.398,2.067-3.646,3.134c-1.26,1.054-2.547,2.133-3.863,3.233
		c-1.302,1.121-2.687,2.189-4.092,3.288c-1.405,1.101-2.836,2.222-4.292,3.362c-1.44,1.164-2.973,2.252-4.515,3.375
		c-1.544,1.123-3.111,2.263-4.7,3.418c-3.179,2.313-6.535,4.546-9.919,6.907c-3.401,2.333-6.977,4.558-10.56,6.907
		c-3.637,2.26-7.334,4.557-11.077,6.882c-3.78,2.259-7.597,4.568-11.505,6.784c-7.806,4.45-15.778,8.894-23.838,13.168l-6.062,3.168
		c-2.03,1.033-4.059,2.066-6.082,3.097c-4.041,2.075-8.097,4.079-12.12,6.067c-8.034,4.001-16.067,7.675-23.816,11.272
		c-7.763,3.57-15.333,6.874-22.53,9.957c-7.187,3.105-14.035,5.918-20.376,8.462c-6.326,2.577-12.175,4.818-17.361,6.795
		c-5.185,1.981-9.735,3.631-13.484,4.979c-3.744,1.363-6.718,2.352-8.735,3.046C379.46,848.204,378.382,848.567,378.382,848.567z"/>
</g>
<g>
	<path fill="#4D1F03" d="M250.003,848.567c0,0,0.089-0.032,0.264-0.096c0.184-0.043,0.457-0.106,0.818-0.189
		c0.724-0.152,1.799-0.365,3.205-0.625c2.812-0.516,6.934-1.282,12.192-2.172c10.511-1.79,25.526-4.349,43.544-7.418
		c9.002-1.55,18.754-3.229,29.069-5.006c10.304-1.823,21.169-3.747,32.408-5.736c11.238-1.988,22.819-4.207,34.599-6.39
		c11.775-2.205,23.72-4.532,35.639-6.969c11.932-2.379,23.842-4.857,35.532-7.436c11.685-2.607,23.19-5.138,34.266-7.834
		c11.074-2.696,21.763-5.365,31.846-8.094c10.077-2.746,19.572-5.457,28.282-8.141c8.701-2.708,16.639-5.321,23.605-7.836
		c6.961-2.525,12.979-4.874,17.891-6.924c4.888-2.1,8.713-3.805,11.283-5.048c2.566-1.256,3.935-1.926,3.935-1.926
		s-1.315,0.771-3.783,2.215c-2.482,1.417-6.152,3.459-10.938,5.844c-4.797,2.355-10.68,5.112-17.556,7.979
		c-6.865,2.892-14.706,5.929-23.354,8.966c-8.641,3.062-18.075,6.167-28.135,9.177c-10.052,3.033-20.703,6.062-31.791,8.912
		c-11.086,2.856-22.56,5.743-34.287,8.363c-11.721,2.652-23.653,5.218-35.61,7.659c-11.97,2.376-23.959,4.641-35.775,6.783
		c-11.813,2.163-23.479,4.056-34.764,5.893c-11.283,1.847-22.221,3.448-32.592,4.948c-10.369,1.52-20.191,2.82-29.261,3.99
		c-9.066,1.193-17.39,2.187-24.769,3.05c-7.377,0.882-13.818,1.57-19.119,2.152c-5.303,0.566-9.469,1.013-12.311,1.316
		c-1.42,0.155-2.506,0.288-3.237,0.386c-0.362,0.056-0.638,0.098-0.823,0.127C250.095,848.541,250.003,848.567,250.003,848.567z"/>
</g>
<g>
	<path fill="#4D1F03" d="M174.327,760.729c0,0,7.91,1.057,21.754,2.906c6.924,0.896,15.331,1.983,24.975,3.231
		c9.647,1.204,20.531,2.562,32.404,4.043c11.88,1.411,24.749,2.94,38.361,4.559c13.617,1.555,27.983,3.132,42.846,4.731
		c14.861,1.629,30.239,3.079,45.857,4.609c7.807,0.787,15.688,1.442,23.594,2.176c7.911,0.659,15.854,1.32,23.796,1.982
		c7.946,0.603,15.888,1.275,23.806,1.834c7.919,0.521,15.803,1.152,23.634,1.575c7.83,0.442,15.595,0.961,23.271,1.334
		c3.839,0.2,7.653,0.398,11.441,0.596c3.788,0.191,7.551,0.311,11.281,0.468c3.731,0.148,7.432,0.295,11.097,0.44
		c3.666,0.103,7.298,0.205,10.89,0.306c3.593,0.104,7.146,0.208,10.657,0.31c3.511,0.052,6.979,0.102,10.401,0.152
		c3.423,0.044,6.798,0.087,10.123,0.13c3.325-0.006,6.6-0.011,9.819-0.016c3.221,0.001,6.387,0.002,9.494,0.003
		c3.106-0.057,6.154-0.113,9.141-0.168s5.911-0.108,8.77-0.161c2.856-0.106,5.646-0.211,8.366-0.313
		c5.439-0.227,10.611-0.314,15.45-0.682c4.848-0.3,9.383-0.581,13.577-0.841c4.187-0.373,8.031-0.717,11.504-1.026
		c1.737-0.155,3.382-0.302,4.93-0.439c1.547-0.145,2.988-0.348,4.335-0.501c2.691-0.323,4.98-0.599,6.837-0.822
		c3.716-0.447,5.697-0.686,5.697-0.686s-1.964,0.351-5.647,1.008c-1.843,0.328-4.115,0.733-6.788,1.21
		c-1.338,0.228-2.771,0.521-4.311,0.743c-1.542,0.211-3.18,0.436-4.911,0.673c-3.465,0.475-7.301,0.999-11.478,1.571
		c-4.192,0.433-8.727,0.9-13.571,1.399c-4.844,0.558-10.018,0.847-15.466,1.287c-2.726,0.204-5.521,0.423-8.386,0.593
		c-2.865,0.141-5.797,0.284-8.791,0.431c-2.995,0.146-6.053,0.296-9.169,0.448c-3.117,0.095-6.293,0.19-9.523,0.288
		c-3.231,0.084-6.518,0.17-9.854,0.257c-3.337,0.03-6.725,0.062-10.159,0.093c-3.435,0.025-6.917,0.051-10.441,0.077
		c-3.524-0.024-7.092-0.05-10.697-0.075c-3.606-0.037-7.252-0.076-10.933-0.114c-3.679-0.097-7.393-0.195-11.138-0.293
		c-3.745-0.108-7.522-0.178-11.324-0.319c-3.802-0.147-7.631-0.296-11.483-0.445c-7.708-0.249-15.498-0.698-23.353-1.131
		c-7.857-0.39-15.762-0.986-23.706-1.475c-7.94-0.528-15.904-1.157-23.873-1.741c-7.957-0.698-15.915-1.396-23.842-2.091
		c-7.919-0.771-15.814-1.461-23.633-2.284c-7.824-0.786-15.582-1.596-23.234-2.491c-3.828-0.435-7.634-0.867-11.411-1.297
		c-3.775-0.451-7.522-0.9-11.24-1.345c-14.871-1.745-29.214-3.693-42.813-5.541c-6.794-0.961-13.409-1.854-19.794-2.804
		c-6.385-0.962-12.553-1.892-18.474-2.785c-11.841-1.788-22.674-3.573-32.271-5.18c-9.598-1.589-17.948-3.084-24.823-4.318
		c-6.876-1.229-12.265-2.279-15.939-2.981C176.286,761.111,174.327,760.729,174.327,760.729z"/>
</g>
<g>
	<line fill="#237D26" x1="366.813" y1="640.307" x2="385.949" y2="664.835"/>
	<path fill="#237D26" d="M366.972,640.184c0,0,0.55,0.188,1.332,0.656c0.799,0.455,1.809,1.209,2.84,2.254
		c0.504,0.531,1.055,1.104,1.493,1.821c0.45,0.709,0.741,1.599,1.07,2.498c0.33,0.898,0.745,1.77,1.366,2.498
		c0.596,0.75,1.35,1.395,2.172,1.986s1.639,1.187,2.318,1.871c0.679,0.684,1.352,1.354,1.976,2.022
		c1.261,1.329,2.14,2.801,2.827,4.113c0.342,0.659,0.624,1.286,0.852,1.86c0.238,0.565,0.409,1.087,0.543,1.522
		c0.271,0.867,0.346,1.425,0.346,1.425l-0.314,0.246c0,0-0.522-0.209-1.299-0.683c-0.389-0.235-0.854-0.528-1.344-0.897
		c-0.502-0.359-1.041-0.787-1.598-1.277c-1.105-0.987-2.32-2.198-3.302-3.743c-0.497-0.769-0.983-1.584-1.481-2.409
		s-0.877-1.763-1.25-2.704c-0.375-0.941-0.816-1.829-1.398-2.589c-0.556-0.78-1.299-1.395-2.091-1.934
		c-0.792-0.538-1.585-1.037-2.163-1.646c-0.588-0.601-1.01-1.272-1.403-1.891c-0.763-1.256-1.248-2.418-1.495-3.304
		c-0.265-0.873-0.313-1.452-0.313-1.452L366.972,640.184z"/>
</g>
<path stroke="#000000" stroke-width="4" stroke-miterlimit="10" d="M374.866,654.501c0,0,5.045-8.239,5.771-11.876
	c0.409-2.044-3.027-13.063,5.856-21.928c1.01-1.006,6.38-5.018,13.086-5.09c4.01-0.039,17.492,6.504,31.515,4.647
	c14.743-1.954,30.159-12.54,39-22.457c17.25-19.348,23.585-55.041,25.808-70.151c4.444-30.22-2.041-56.673-1.858-56.764
	c0.362-0.181,35.663-20.657,35.663-20.657s-20.71,87.937-10.896,108.655c4.145,8.747,30.159,13.474,30.159,13.474
	s-14.468,6.604-19.263,21.446c-6.99,21.621-8.008,55.337-34.532,66.879c-37.714,16.411-84.857-25.13-103.228-16.355
	C386.034,647.147,374.638,655.048,374.866,654.501"/>
<path stroke="#000000" stroke-width="4" stroke-miterlimit="10" d="M465.893,663.838c0,0,13.183,26.203,8.456,37.109
	c0,0,5.45-0.729,7.268,0c0.422,0.168-9.015-26.864-1.817-36.39"/>
<path stroke="#000000" stroke-width="4" stroke-miterlimit="10" d="M493.448,658.073c0,0,13.074,29.423,5.077,39.966l8.359-3.636
	c-3.271-8.359-4.605-43.832-4.605-43.832L493.448,658.073z"/>
<path fill="#40A629" d="M425.72,300.566c0,0-15.734-2.272-14.105-18.676C411.614,281.89,426.071,282.167,425.72,300.566z"/>
<path fill="#40A629" d="M622.39,465.337c0,0-13.987,7.556-22.459-6.584C599.931,458.752,611.702,450.355,622.39,465.337z"/>
<path fill="#40A629" d="M197.488,743.074c0,0-5.463-7.308,1.855-13.305C199.344,729.77,205.099,735.749,197.488,743.074z"/>
<path fill="#40A629" d="M178.524,550.648c0,0-9.912-12.43,2.506-23.27C181.03,527.378,191.378,537.478,178.524,550.648z"/>
<path fill="#40A629" d="M651.349,722.311c0,0-15.734-2.273-14.105-18.676C637.243,703.635,651.7,703.91,651.349,722.311z"/>
<path fill="#40A629" d="M298.244,759.732c0,0,0.864-9.083,10.313-8.608C308.558,751.124,308.803,759.42,298.244,759.732z"/>
<path fill="#40A629" d="M576.04,399.476c0,0,1.305-9.03,10.72-8.096C586.76,391.38,586.602,399.678,576.04,399.476z"/>
<path fill="#40A629" d="M438.201,361.245c0,0-5.463-7.308,1.855-13.305C440.057,347.94,445.812,353.92,438.201,361.245z"/>
<path fill="#40A629" d="M336.407,397.385c0,0-8.563-3.152-5.693-12.168C330.714,385.217,338.798,387.096,336.407,397.385z"/>
<path fill="#40A629" d="M258.876,848.458c0,0-13.434-8.501-5.249-22.808C253.627,825.65,266.711,831.806,258.876,848.458z"/>
</svg>
