<svg width="380" height="205" viewBox="0 0 380 205" fill="none" xmlns="http://www.w3.org/2000/svg">
<path d="M70.5647 183H77.2447V184.04H71.6847V188.74H75.5047L75.1247 189.84H71.6847V196H77.2047V197H70.5647V183ZM96.6416 196.54C95.4549 196.98 94.3482 197.2 93.3216 197.2C92.1616 197.2 91.2216 196.893 90.5016 196.28C89.7816 195.667 89.4216 194.687 89.4216 193.34V186.92C89.4216 185.907 89.5616 185.14 89.8416 184.62C90.1349 184.1 90.5749 183.66 91.1616 183.3C91.7482 182.967 92.4682 182.8 93.3216 182.8C94.3616 182.8 95.3016 183.02 96.1416 183.46L95.8216 184.22C95.0616 183.94 94.3416 183.8 93.6616 183.8C92.8482 183.8 92.1216 184 91.4816 184.4C90.8549 184.8 90.5416 185.58 90.5416 186.74V193.3C90.5416 194.22 90.7816 194.933 91.2616 195.44C91.7416 195.933 92.4616 196.18 93.4216 196.18C94.2616 196.18 95.2549 195.987 96.4016 195.6L96.6416 196.54ZM116.272 193.3C116.272 194.647 115.859 195.64 115.032 196.28C114.219 196.907 113.239 197.22 112.092 197.22C111.372 197.22 110.692 197.093 110.052 196.84C109.412 196.573 108.886 196.147 108.472 195.56C108.072 194.973 107.872 194.22 107.872 193.3V186.86C107.872 185.487 108.246 184.447 108.992 183.74C109.752 183.033 110.792 182.68 112.112 182.68C113.432 182.68 114.452 183.053 115.172 183.8C115.906 184.547 116.272 185.573 116.272 186.88V193.3ZM115.172 186.68C115.172 185.707 114.886 184.973 114.312 184.48C113.752 183.987 113.006 183.74 112.072 183.74C111.139 183.74 110.392 183.987 109.832 184.48C109.272 184.973 108.992 185.707 108.992 186.68V193.28C108.992 194.227 109.279 194.947 109.852 195.44C110.439 195.92 111.179 196.16 112.072 196.16C112.979 196.16 113.719 195.927 114.292 195.46C114.879 194.98 115.172 194.247 115.172 193.26V186.68ZM144.635 193.44C144.675 193.893 144.842 194.327 145.135 194.74C145.442 195.153 145.855 195.493 146.375 195.76C146.909 196.013 147.515 196.14 148.195 196.14C149.222 196.14 150.075 195.913 150.755 195.46C151.449 194.993 151.795 194.26 151.795 193.26C151.795 192.673 151.629 192.187 151.295 191.8C150.962 191.4 150.549 191.087 150.055 190.86C149.562 190.62 148.889 190.347 148.035 190.04C147.115 189.72 146.375 189.427 145.815 189.16C145.269 188.88 144.802 188.507 144.415 188.04C144.042 187.573 143.855 186.973 143.855 186.24C143.855 185.653 144.022 185.1 144.355 184.58C144.689 184.047 145.189 183.62 145.855 183.3C146.535 182.967 147.369 182.8 148.355 182.8C149.009 182.8 149.549 182.847 149.975 182.94C150.402 183.033 150.835 183.187 151.275 183.4L150.935 184.46C150.175 184.073 149.329 183.88 148.395 183.88C147.369 183.88 146.549 184.093 145.935 184.52C145.322 184.947 145.015 185.54 145.015 186.3C145.015 186.78 145.169 187.187 145.475 187.52C145.782 187.84 146.155 188.1 146.595 188.3C147.049 188.5 147.675 188.74 148.475 189.02C149.449 189.353 150.235 189.667 150.835 189.96C151.435 190.24 151.942 190.647 152.355 191.18C152.782 191.7 152.995 192.36 152.995 193.16C152.995 194.387 152.602 195.373 151.815 196.12C151.042 196.853 149.842 197.22 148.215 197.22C147.229 197.22 146.382 197.04 145.675 196.68C144.982 196.307 144.449 195.833 144.075 195.26C143.715 194.673 143.522 194.067 143.495 193.44H144.635ZM173.426 193.3C173.426 194.647 173.013 195.64 172.186 196.28C171.373 196.907 170.393 197.22 169.246 197.22C168.526 197.22 167.846 197.093 167.206 196.84C166.566 196.573 166.04 196.147 165.626 195.56C165.226 194.973 165.026 194.22 165.026 193.3V186.86C165.026 185.487 165.4 184.447 166.146 183.74C166.906 183.033 167.946 182.68 169.266 182.68C170.586 182.68 171.606 183.053 172.326 183.8C173.06 184.547 173.426 185.573 173.426 186.88V193.3ZM172.326 186.68C172.326 185.707 172.04 184.973 171.466 184.48C170.906 183.987 170.16 183.74 169.226 183.74C168.293 183.74 167.546 183.987 166.986 184.48C166.426 184.973 166.146 185.707 166.146 186.68V193.28C166.146 194.227 166.433 194.947 167.006 195.44C167.593 195.92 168.333 196.16 169.226 196.16C170.133 196.16 170.873 195.927 171.446 195.46C172.033 194.98 172.326 194.247 172.326 193.26V186.68ZM186.103 183H187.223V196H193.323V197H186.103V183ZM213.052 182.98V193.28C213.052 194.627 212.638 195.607 211.812 196.22C210.998 196.833 210.012 197.14 208.852 197.14C207.692 197.14 206.698 196.833 205.872 196.22C205.045 195.607 204.632 194.627 204.632 193.28V182.98H205.752V193.44C205.752 194.253 206.045 194.907 206.632 195.4C207.232 195.893 207.965 196.14 208.832 196.14C209.698 196.14 210.432 195.893 211.032 195.4C211.632 194.907 211.932 194.253 211.932 193.44V182.98H213.052ZM227.68 184H224.28V183H232.32V184H228.8V197H227.68V184ZM244.787 184.02L243.447 183.98V183H245.907V197H244.787V184.02ZM266.86 193.3C266.86 194.647 266.447 195.64 265.62 196.28C264.807 196.907 263.827 197.22 262.68 197.22C261.96 197.22 261.28 197.093 260.64 196.84C260 196.573 259.473 196.147 259.06 195.56C258.66 194.973 258.46 194.22 258.46 193.3V186.86C258.46 185.487 258.833 184.447 259.58 183.74C260.34 183.033 261.38 182.68 262.7 182.68C264.02 182.68 265.04 183.053 265.76 183.8C266.493 184.547 266.86 185.573 266.86 186.88V193.3ZM265.76 186.68C265.76 185.707 265.473 184.973 264.9 184.48C264.34 183.987 263.593 183.74 262.66 183.74C261.727 183.74 260.98 183.987 260.42 184.48C259.86 184.973 259.58 185.707 259.58 186.68V193.28C259.58 194.227 259.867 194.947 260.44 195.44C261.027 195.92 261.767 196.16 262.66 196.16C263.567 196.16 264.307 195.927 264.88 195.46C265.467 194.98 265.76 194.247 265.76 193.26V186.68ZM280.657 185.06V197H279.537V183H280.657L288.257 194.94V183H289.377V197H288.257L280.657 185.06ZM302.664 193.44C302.704 193.893 302.871 194.327 303.164 194.74C303.471 195.153 303.884 195.493 304.404 195.76C304.938 196.013 305.544 196.14 306.224 196.14C307.251 196.14 308.104 195.913 308.784 195.46C309.478 194.993 309.824 194.26 309.824 193.26C309.824 192.673 309.658 192.187 309.324 191.8C308.991 191.4 308.578 191.087 308.084 190.86C307.591 190.62 306.918 190.347 306.064 190.04C305.144 189.72 304.404 189.427 303.844 189.16C303.298 188.88 302.831 188.507 302.444 188.04C302.071 187.573 301.884 186.973 301.884 186.24C301.884 185.653 302.051 185.1 302.384 184.58C302.718 184.047 303.218 183.62 303.884 183.3C304.564 182.967 305.398 182.8 306.384 182.8C307.038 182.8 307.578 182.847 308.004 182.94C308.431 183.033 308.864 183.187 309.304 183.4L308.964 184.46C308.204 184.073 307.358 183.88 306.424 183.88C305.398 183.88 304.578 184.093 303.964 184.52C303.351 184.947 303.044 185.54 303.044 186.3C303.044 186.78 303.198 187.187 303.504 187.52C303.811 187.84 304.184 188.1 304.624 188.3C305.078 188.5 305.704 188.74 306.504 189.02C307.478 189.353 308.264 189.667 308.864 189.96C309.464 190.24 309.971 190.647 310.384 191.18C310.811 191.7 311.024 192.36 311.024 193.16C311.024 194.387 310.631 195.373 309.844 196.12C309.071 196.853 307.871 197.22 306.244 197.22C305.258 197.22 304.411 197.04 303.704 196.68C303.011 196.307 302.478 195.833 302.104 195.26C301.744 194.673 301.551 194.067 301.524 193.44H302.664Z" fill="#00AC83"/>
<path d="M70.5647 183V182H69.5647V183H70.5647ZM77.2447 183H78.2447V182H77.2447V183ZM77.2447 184.04V185.04H78.2447V184.04H77.2447ZM71.6847 184.04V183.04H70.6847V184.04H71.6847ZM71.6847 188.74H70.6847V189.74H71.6847V188.74ZM75.5047 188.74L76.4499 189.067L76.9081 187.74H75.5047V188.74ZM75.1247 189.84V190.84H75.8372L76.0699 190.167L75.1247 189.84ZM71.6847 189.84V188.84H70.6847V189.84H71.6847ZM71.6847 196H70.6847V197H71.6847V196ZM77.2047 196H78.2047V195H77.2047V196ZM77.2047 197V198H78.2047V197H77.2047ZM70.5647 197H69.5647V198H70.5647V197ZM70.5647 184H77.2447V182H70.5647V184ZM76.2447 183V184.04H78.2447V183H76.2447ZM77.2447 183.04H71.6847V185.04H77.2447V183.04ZM70.6847 184.04V188.74H72.6847V184.04H70.6847ZM71.6847 189.74H75.5047V187.74H71.6847V189.74ZM74.5595 188.413L74.1795 189.513L76.0699 190.167L76.4499 189.067L74.5595 188.413ZM75.1247 188.84H71.6847V190.84H75.1247V188.84ZM70.6847 189.84V196H72.6847V189.84H70.6847ZM71.6847 197H77.2047V195H71.6847V197ZM76.2047 196V197H78.2047V196H76.2047ZM77.2047 196H70.5647V198H77.2047V196ZM71.5647 197V183H69.5647V197H71.5647ZM96.6416 196.54L96.9892 197.478L97.8331 197.165L97.6105 196.293L96.6416 196.54ZM90.5016 196.28L91.15 195.519L90.5016 196.28ZM89.8416 184.62L88.9706 184.129L88.9658 184.137L88.9611 184.146L89.8416 184.62ZM91.1616 183.3L90.6676 182.431L90.6529 182.439L90.6385 182.448L91.1616 183.3ZM96.1416 183.46L97.0632 183.848L97.42 183.001L96.6056 182.574L96.1416 183.46ZM95.8216 184.22L95.4759 185.158L96.3724 185.489L96.7432 184.608L95.8216 184.22ZM91.4816 184.4L90.9515 183.552L90.9435 183.557L91.4816 184.4ZM91.2616 195.44L90.5355 196.128L90.5448 196.137L91.2616 195.44ZM96.4016 195.6L97.3705 195.353L97.1037 194.308L96.082 194.652L96.4016 195.6ZM96.2939 195.602C95.1935 196.01 94.2056 196.2 93.3216 196.2V198.2C94.4909 198.2 95.7163 197.95 96.9892 197.478L96.2939 195.602ZM93.3216 196.2C92.3434 196.2 91.6507 195.945 91.15 195.519L89.8531 197.041C90.7924 197.841 91.9798 198.2 93.3216 198.2V196.2ZM91.15 195.519C90.7352 195.165 90.4216 194.522 90.4216 193.34H88.4216C88.4216 194.851 88.8279 196.168 89.8531 197.041L91.15 195.519ZM90.4216 193.34V186.92H88.4216V193.34H90.4216ZM90.4216 186.92C90.4216 185.969 90.558 185.399 90.722 185.094L88.9611 184.146C88.5651 184.881 88.4216 185.844 88.4216 186.92H90.4216ZM90.7125 185.111C90.9104 184.761 91.2203 184.437 91.6846 184.152L90.6385 182.448C89.9295 182.883 89.3594 183.439 88.9706 184.129L90.7125 185.111ZM91.6556 184.169C92.0568 183.941 92.5964 183.8 93.3216 183.8V181.8C92.3401 181.8 91.4397 181.992 90.6676 182.431L91.6556 184.169ZM93.3216 183.8C94.2159 183.8 94.9942 183.988 95.6776 184.346L96.6056 182.574C95.6089 182.052 94.5072 181.8 93.3216 181.8V183.8ZM95.2199 183.072L94.8999 183.832L96.7432 184.608L97.0632 183.848L95.2199 183.072ZM96.1673 183.282C95.3172 182.968 94.4797 182.8 93.6616 182.8V184.8C94.2034 184.8 94.8059 184.912 95.4759 185.158L96.1673 183.282ZM93.6616 182.8C92.676 182.8 91.7629 183.045 90.9516 183.552L92.0116 185.248C92.4803 184.955 93.0205 184.8 93.6616 184.8V182.8ZM90.9435 183.557C89.8931 184.228 89.5416 185.439 89.5416 186.74H91.5416C91.5416 185.721 91.8167 185.372 92.0196 185.243L90.9435 183.557ZM89.5416 186.74V193.3H91.5416V186.74H89.5416ZM89.5416 193.3C89.5416 194.392 89.8294 195.382 90.5356 196.128L91.9875 194.752C91.7337 194.484 91.5416 194.048 91.5416 193.3H89.5416ZM90.5448 196.137C91.2774 196.89 92.3004 197.18 93.4216 197.18V195.18C92.6228 195.18 92.2057 194.976 91.9783 194.743L90.5448 196.137ZM93.4216 197.18C94.4066 197.18 95.5128 196.955 96.7211 196.548L96.082 194.652C94.997 195.018 94.1165 195.18 93.4216 195.18V197.18ZM95.4326 195.847L95.6726 196.787L97.6105 196.293L97.3705 195.353L95.4326 195.847ZM115.032 196.28L115.643 197.072L115.645 197.071L115.032 196.28ZM110.052 196.84L109.668 197.763L109.676 197.767L109.684 197.77L110.052 196.84ZM108.472 195.56L107.646 196.123L107.651 196.13L107.655 196.136L108.472 195.56ZM108.992 183.74L108.312 183.008L108.305 183.014L108.992 183.74ZM115.172 183.8L114.453 184.494L114.459 184.501L115.172 183.8ZM114.312 184.48L113.651 185.23L113.66 185.238L114.312 184.48ZM109.832 184.48L110.494 185.23L109.832 184.48ZM109.852 195.44L109.2 196.198L109.21 196.206L109.219 196.214L109.852 195.44ZM114.292 195.46L114.924 196.236L114.926 196.234L114.292 195.46ZM115.272 193.3C115.272 194.435 114.935 195.091 114.42 195.489L115.645 197.071C116.784 196.189 117.272 194.859 117.272 193.3H115.272ZM114.422 195.488C113.804 195.964 113.046 196.22 112.092 196.22V198.22C113.433 198.22 114.634 197.849 115.643 197.072L114.422 195.488ZM112.092 196.22C111.493 196.22 110.938 196.115 110.421 195.91L109.684 197.77C110.447 198.072 111.252 198.22 112.092 198.22V196.22ZM110.437 195.917C109.978 195.725 109.599 195.422 109.29 194.984L107.655 196.136C108.173 196.871 108.847 197.421 109.668 197.763L110.437 195.917ZM109.299 194.997C109.041 194.619 108.872 194.078 108.872 193.3H106.872C106.872 194.362 107.104 195.328 107.646 196.123L109.299 194.997ZM108.872 193.3V186.86H106.872V193.3H108.872ZM108.872 186.86C108.872 185.665 109.193 184.927 109.68 184.466L108.305 183.014C107.298 183.966 106.872 185.308 106.872 186.86H108.872ZM109.673 184.472C110.202 183.981 110.974 183.68 112.112 183.68V181.68C110.611 181.68 109.303 182.086 108.312 183.008L109.673 184.472ZM112.112 183.68C113.239 183.68 113.969 183.993 114.453 184.494L115.892 183.106C114.936 182.114 113.626 181.68 112.112 181.68V183.68ZM114.459 184.501C114.966 185.017 115.272 185.767 115.272 186.88H117.272C117.272 185.38 116.846 184.077 115.886 183.099L114.459 184.501ZM115.272 186.88V193.3H117.272V186.88H115.272ZM116.172 186.68C116.172 185.505 115.819 184.457 114.965 183.722L113.66 185.238C113.953 185.49 114.172 185.908 114.172 186.68H116.172ZM114.974 183.73C114.188 183.038 113.186 182.74 112.072 182.74V184.74C112.826 184.74 113.317 184.935 113.651 185.23L114.974 183.73ZM112.072 182.74C110.959 182.74 109.957 183.038 109.171 183.73L110.494 185.23C110.828 184.935 111.319 184.74 112.072 184.74V182.74ZM109.171 183.73C108.335 184.467 107.992 185.512 107.992 186.68H109.992C109.992 185.901 110.21 185.48 110.494 185.23L109.171 183.73ZM107.992 186.68V193.28H109.992V186.68H107.992ZM107.992 193.28C107.992 194.439 108.352 195.468 109.2 196.198L110.505 194.682C110.206 194.425 109.992 194.015 109.992 193.28H107.992ZM109.219 196.214C110.015 196.865 110.991 197.16 112.072 197.16V195.16C111.367 195.16 110.863 194.975 110.486 194.666L109.219 196.214ZM112.072 197.16C113.155 197.16 114.134 196.878 114.924 196.236L113.661 194.684C113.304 194.975 112.803 195.16 112.072 195.16V197.16ZM114.926 196.234C115.811 195.51 116.172 194.449 116.172 193.26H114.172C114.172 194.044 113.948 194.45 113.659 194.686L114.926 196.234ZM116.172 193.26V186.68H114.172V193.26H116.172ZM144.635 193.44L145.632 193.352L145.551 192.44H144.635V193.44ZM145.135 194.74L144.32 195.319L144.326 195.327L144.332 195.336L145.135 194.74ZM146.375 195.76L145.919 196.65L145.933 196.657L145.946 196.663L146.375 195.76ZM150.755 195.46L151.31 196.292L151.314 196.29L150.755 195.46ZM151.295 191.8L150.527 192.44L150.533 192.447L150.538 192.453L151.295 191.8ZM150.055 190.86L149.618 191.759L149.628 191.764L149.638 191.769L150.055 190.86ZM148.035 190.04L148.374 189.099L148.364 189.096L148.035 190.04ZM145.815 189.16L145.36 190.05L145.372 190.057L145.386 190.063L145.815 189.16ZM144.415 188.04L143.635 188.665L143.64 188.671L143.645 188.678L144.415 188.04ZM144.355 184.58L145.197 185.12L145.203 185.11L144.355 184.58ZM145.855 183.3L146.288 184.202L146.296 184.198L145.855 183.3ZM149.975 182.94L149.762 183.917V183.917L149.975 182.94ZM151.275 183.4L152.228 183.705L152.493 182.879L151.712 182.5L151.275 183.4ZM150.935 184.46L150.482 185.351L151.529 185.884L151.888 184.765L150.935 184.46ZM145.475 187.52L144.74 188.197L144.746 188.205L144.753 188.212L145.475 187.52ZM146.595 188.3L146.182 189.21L146.192 189.215L146.595 188.3ZM148.475 189.02L148.145 189.964L148.151 189.966L148.475 189.02ZM150.835 189.96L150.396 190.858L150.404 190.862L150.413 190.866L150.835 189.96ZM152.355 191.18L151.565 191.793L151.574 191.804L151.582 191.814L152.355 191.18ZM151.815 196.12L152.504 196.846L152.504 196.845L151.815 196.12ZM145.675 196.68L145.201 197.56L145.211 197.566L145.222 197.571L145.675 196.68ZM144.075 195.26L143.223 195.783L143.23 195.794L143.237 195.806L144.075 195.26ZM143.495 193.44V192.44H142.452L142.496 193.483L143.495 193.44ZM143.639 193.528C143.697 194.177 143.936 194.778 144.32 195.319L145.951 194.161C145.748 193.876 145.654 193.609 145.632 193.352L143.639 193.528ZM144.332 195.336C144.742 195.888 145.281 196.323 145.919 196.65L146.832 194.87C146.43 194.664 146.142 194.418 145.939 194.144L144.332 195.336ZM145.946 196.663C146.633 196.989 147.39 197.14 148.195 197.14V195.14C147.641 195.14 147.185 195.037 146.805 194.857L145.946 196.663ZM148.195 197.14C149.369 197.14 150.428 196.88 151.31 196.292L150.201 194.628C149.723 194.947 149.075 195.14 148.195 195.14V197.14ZM151.314 196.29C152.34 195.599 152.795 194.518 152.795 193.26H150.795C150.795 194.002 150.557 194.388 150.197 194.63L151.314 196.29ZM152.795 193.26C152.795 192.472 152.566 191.742 152.053 191.147L150.538 192.453C150.692 192.631 150.795 192.875 150.795 193.26H152.795ZM152.064 191.16C151.631 190.64 151.096 190.237 150.473 189.951L149.638 191.769C150.002 191.936 150.293 192.16 150.527 192.44L152.064 191.16ZM150.493 189.961C149.953 189.698 149.242 189.411 148.374 189.099L147.697 190.981C148.536 191.282 149.171 191.542 149.618 191.759L150.493 189.961ZM148.364 189.096C147.461 188.782 146.759 188.502 146.245 188.257L145.386 190.063C145.992 190.351 146.769 190.658 147.707 190.984L148.364 189.096ZM146.271 188.27C145.844 188.051 145.484 187.763 145.185 187.402L143.645 188.678C144.12 189.251 144.694 189.709 145.36 190.05L146.271 188.27ZM145.196 187.415C144.995 187.163 144.855 186.799 144.855 186.24H142.855C142.855 187.147 143.089 187.983 143.635 188.665L145.196 187.415ZM144.855 186.24C144.855 185.855 144.962 185.488 145.197 185.12L143.514 184.04C143.083 184.712 142.855 185.452 142.855 186.24H144.855ZM145.203 185.11C145.42 184.764 145.762 184.454 146.288 184.202L145.423 182.398C144.616 182.786 143.958 183.33 143.507 184.05L145.203 185.11ZM146.296 184.198C146.804 183.949 147.477 183.8 148.355 183.8V181.8C147.261 181.8 146.267 181.984 145.415 182.402L146.296 184.198ZM148.355 183.8C148.969 183.8 149.431 183.844 149.762 183.917L150.189 181.963C149.667 181.849 149.049 181.8 148.355 181.8V183.8ZM149.762 183.917C150.103 183.992 150.462 184.117 150.839 184.3L151.712 182.5C151.209 182.257 150.701 182.075 150.189 181.963L149.762 183.917ZM150.323 183.095L149.983 184.155L151.888 184.765L152.228 183.705L150.323 183.095ZM151.389 183.569C150.476 183.104 149.471 182.88 148.395 182.88V184.88C149.186 184.88 149.875 185.043 150.482 185.351L151.389 183.569ZM148.395 182.88C147.239 182.88 146.198 183.12 145.364 183.699L146.507 185.341C146.9 185.067 147.499 184.88 148.395 184.88V182.88ZM145.364 183.699C144.477 184.317 144.015 185.219 144.015 186.3H146.015C146.015 185.861 146.167 185.577 146.507 185.341L145.364 183.699ZM144.015 186.3C144.015 187.014 144.252 187.667 144.74 188.197L146.211 186.843C146.085 186.706 146.015 186.546 146.015 186.3H144.015ZM144.753 188.212C145.156 188.632 145.636 188.963 146.182 189.21L147.009 187.39C146.674 187.237 146.409 187.048 146.197 186.828L144.753 188.212ZM146.192 189.215C146.68 189.43 147.335 189.68 148.145 189.964L148.806 188.076C148.016 187.8 147.417 187.57 146.999 187.385L146.192 189.215ZM148.151 189.966C149.104 190.292 149.848 190.59 150.396 190.858L151.275 189.062C150.623 188.743 149.794 188.414 148.799 188.074L148.151 189.966ZM150.413 190.866C150.866 191.078 151.247 191.382 151.565 191.793L153.146 190.567C152.637 189.911 152.005 189.402 151.258 189.054L150.413 190.866ZM151.582 191.814C151.836 192.123 151.995 192.546 151.995 193.16H153.995C153.995 192.174 153.729 191.277 153.129 190.546L151.582 191.814ZM151.995 193.16C151.995 194.152 151.688 194.862 151.127 195.395L152.504 196.845C153.516 195.884 153.995 194.621 153.995 193.16H151.995ZM151.127 195.394C150.617 195.878 149.717 196.22 148.215 196.22V198.22C149.967 198.22 151.467 197.828 152.504 196.846L151.127 195.394ZM148.215 196.22C147.349 196.22 146.665 196.062 146.129 195.789L145.222 197.571C146.099 198.018 147.109 198.22 148.215 198.22V196.22ZM146.15 195.8C145.581 195.493 145.182 195.127 144.913 194.714L143.237 195.806C143.715 196.539 144.383 197.12 145.201 197.56L146.15 195.8ZM144.928 194.737C144.648 194.281 144.513 193.838 144.495 193.397L142.496 193.483C142.531 194.295 142.783 195.066 143.223 195.783L144.928 194.737ZM143.495 194.44H144.635V192.44H143.495V194.44ZM172.186 196.28L172.797 197.072L172.799 197.071L172.186 196.28ZM167.206 196.84L166.822 197.763L166.83 197.767L166.838 197.77L167.206 196.84ZM165.626 195.56L164.8 196.123L164.805 196.13L164.809 196.136L165.626 195.56ZM166.146 183.74L165.465 183.008L165.459 183.014L166.146 183.74ZM172.326 183.8L171.607 184.494L171.613 184.501L172.326 183.8ZM171.466 184.48L170.805 185.23L170.814 185.238L171.466 184.48ZM166.986 184.48L167.647 185.23L166.986 184.48ZM167.006 195.44L166.354 196.198L166.364 196.206L166.373 196.214L167.006 195.44ZM171.446 195.46L172.078 196.236L172.08 196.234L171.446 195.46ZM172.426 193.3C172.426 194.435 172.088 195.091 171.574 195.489L172.799 197.071C173.938 196.189 174.426 194.859 174.426 193.3H172.426ZM171.576 195.488C170.958 195.964 170.199 196.22 169.246 196.22V198.22C170.587 198.22 171.788 197.849 172.797 197.072L171.576 195.488ZM169.246 196.22C168.647 196.22 168.092 196.115 167.574 195.91L166.838 197.77C167.601 198.072 168.406 198.22 169.246 198.22V196.22ZM167.591 195.917C167.131 195.725 166.753 195.422 166.444 194.984L164.809 196.136C165.327 196.871 166.001 197.421 166.822 197.763L167.591 195.917ZM166.453 194.997C166.195 194.619 166.026 194.078 166.026 193.3H164.026C164.026 194.362 164.258 195.328 164.8 196.123L166.453 194.997ZM166.026 193.3V186.86H164.026V193.3H166.026ZM166.026 186.86C166.026 185.665 166.347 184.927 166.834 184.466L165.459 183.014C164.452 183.966 164.026 185.308 164.026 186.86H166.026ZM166.827 184.472C167.356 183.981 168.128 183.68 169.266 183.68V181.68C167.765 181.68 166.457 182.086 165.465 183.008L166.827 184.472ZM169.266 183.68C170.393 183.68 171.123 183.993 171.607 184.494L173.046 183.106C172.09 182.114 170.78 181.68 169.266 181.68V183.68ZM171.613 184.501C172.12 185.017 172.426 185.767 172.426 186.88H174.426C174.426 185.38 174 184.077 173.04 183.099L171.613 184.501ZM172.426 186.88V193.3H174.426V186.88H172.426ZM173.326 186.68C173.326 185.505 172.973 184.457 172.119 183.722L170.814 185.238C171.107 185.49 171.326 185.908 171.326 186.68H173.326ZM172.127 183.73C171.342 183.038 170.34 182.74 169.226 182.74V184.74C169.98 184.74 170.47 184.935 170.805 185.23L172.127 183.73ZM169.226 182.74C168.113 182.74 167.11 183.038 166.325 183.73L167.647 185.23C167.982 184.935 168.473 184.74 169.226 184.74V182.74ZM166.325 183.73C165.489 184.467 165.146 185.512 165.146 186.68H167.146C167.146 185.901 167.364 185.48 167.647 185.23L166.325 183.73ZM165.146 186.68V193.28H167.146V186.68H165.146ZM165.146 193.28C165.146 194.439 165.506 195.468 166.354 196.198L167.659 194.682C167.36 194.425 167.146 194.015 167.146 193.28H165.146ZM166.373 196.214C167.169 196.865 168.145 197.16 169.226 197.16V195.16C168.521 195.16 168.017 194.975 167.64 194.666L166.373 196.214ZM169.226 197.16C170.309 197.16 171.288 196.878 172.078 196.236L170.815 194.684C170.458 194.975 169.957 195.16 169.226 195.16V197.16ZM172.08 196.234C172.965 195.51 173.326 194.449 173.326 193.26H171.326C171.326 194.044 171.102 194.45 170.813 194.686L172.08 196.234ZM173.326 193.26V186.68H171.326V193.26H173.326ZM186.103 183V182H185.103V183H186.103ZM187.223 183H188.223V182H187.223V183ZM187.223 196H186.223V197H187.223V196ZM193.323 196H194.323V195H193.323V196ZM193.323 197V198H194.323V197H193.323ZM186.103 197H185.103V198H186.103V197ZM186.103 184H187.223V182H186.103V184ZM186.223 183V196H188.223V183H186.223ZM187.223 197H193.323V195H187.223V197ZM192.323 196V197H194.323V196H192.323ZM193.323 196H186.103V198H193.323V196ZM187.103 197V183H185.103V197H187.103ZM213.052 182.98H214.052V181.98H213.052V182.98ZM211.812 196.22L211.216 195.417L211.209 195.422L211.812 196.22ZM205.872 196.22L206.467 195.417L205.872 196.22ZM204.632 182.98V181.98H203.632V182.98H204.632ZM205.752 182.98H206.752V181.98H205.752V182.98ZM206.632 195.4L205.988 196.165L205.996 196.172L206.632 195.4ZM211.032 195.4L211.667 196.172L211.032 195.4ZM211.932 182.98V181.98H210.932V182.98H211.932ZM212.052 182.98V193.28H214.052V182.98H212.052ZM212.052 193.28C212.052 194.417 211.713 195.048 211.216 195.417L212.407 197.023C213.563 196.165 214.052 194.836 214.052 193.28H212.052ZM211.209 195.422C210.593 195.886 209.826 196.14 208.852 196.14V198.14C210.197 198.14 211.403 197.78 212.414 197.018L211.209 195.422ZM208.852 196.14C207.878 196.14 207.1 195.886 206.467 195.417L205.276 197.023C206.296 197.78 207.505 198.14 208.852 198.14V196.14ZM206.467 195.417C205.97 195.048 205.632 194.417 205.632 193.28H203.632C203.632 194.836 204.12 196.165 205.276 197.023L206.467 195.417ZM205.632 193.28V182.98H203.632V193.28H205.632ZM204.632 183.98H205.752V181.98H204.632V183.98ZM204.752 182.98V193.44H206.752V182.98H204.752ZM204.752 193.44C204.752 194.528 205.16 195.469 205.988 196.165L207.275 194.635C206.93 194.344 206.752 193.979 206.752 193.44H204.752ZM205.996 196.172C206.796 196.83 207.762 197.14 208.832 197.14V195.14C208.168 195.14 207.667 194.957 207.267 194.628L205.996 196.172ZM208.832 197.14C209.901 197.14 210.867 196.83 211.667 196.172L210.396 194.628C209.996 194.957 209.495 195.14 208.832 195.14V197.14ZM211.667 196.172C212.51 195.479 212.932 194.536 212.932 193.44H210.932C210.932 193.97 210.753 194.334 210.396 194.628L211.667 196.172ZM212.932 193.44V182.98H210.932V193.44H212.932ZM211.932 183.98H213.052V181.98H211.932V183.98ZM227.68 184H228.68V183H227.68V184ZM224.28 184H223.28V185H224.28V184ZM224.28 183V182H223.28V183H224.28ZM232.32 183H233.32V182H232.32V183ZM232.32 184V185H233.32V184H232.32ZM228.8 184V183H227.8V184H228.8ZM228.8 197V198H229.8V197H228.8ZM227.68 197H226.68V198H227.68V197ZM227.68 183H224.28V185H227.68V183ZM225.28 184V183H223.28V184H225.28ZM224.28 184H232.32V182H224.28V184ZM231.32 183V184H233.32V183H231.32ZM232.32 183H228.8V185H232.32V183ZM227.8 184V197H229.8V184H227.8ZM228.8 196H227.68V198H228.8V196ZM228.68 197V184H226.68V197H228.68ZM244.787 184.02H245.787V183.049L244.816 183.02L244.787 184.02ZM243.447 183.98H242.447V184.951L243.417 184.98L243.447 183.98ZM243.447 183V182H242.447V183H243.447ZM245.907 183H246.907V182H245.907V183ZM245.907 197V198H246.907V197H245.907ZM244.787 197H243.787V198H244.787V197ZM244.816 183.02L243.476 182.98L243.417 184.98L244.757 185.02L244.816 183.02ZM244.447 183.98V183H242.447V183.98H244.447ZM243.447 184H245.907V182H243.447V184ZM244.907 183V197H246.907V183H244.907ZM245.907 196H244.787V198H245.907V196ZM245.787 197V184.02H243.787V197H245.787ZM265.62 196.28L266.23 197.072L266.232 197.071L265.62 196.28ZM260.64 196.84L260.255 197.763L260.264 197.767L260.272 197.77L260.64 196.84ZM259.06 195.56L258.234 196.123L258.238 196.13L258.243 196.136L259.06 195.56ZM259.58 183.74L258.899 183.008L258.893 183.014L259.58 183.74ZM265.76 183.8L265.04 184.494L265.047 184.501L265.76 183.8ZM264.9 184.48L264.239 185.23L264.248 185.238L264.9 184.48ZM260.42 184.48L261.081 185.23L260.42 184.48ZM260.44 195.44L259.788 196.198L259.797 196.206L259.807 196.214L260.44 195.44ZM264.88 195.46L265.511 196.236L265.513 196.234L264.88 195.46ZM265.86 193.3C265.86 194.435 265.522 195.091 265.008 195.489L266.232 197.071C267.371 196.189 267.86 194.859 267.86 193.3H265.86ZM265.01 195.488C264.392 195.964 263.633 196.22 262.68 196.22V198.22C264.02 198.22 265.222 197.849 266.23 197.072L265.01 195.488ZM262.68 196.22C262.08 196.22 261.526 196.115 261.008 195.91L260.272 197.77C261.034 198.072 261.84 198.22 262.68 198.22V196.22ZM261.025 195.917C260.565 195.725 260.186 195.422 259.877 194.984L258.243 196.136C258.76 196.871 259.435 197.421 260.255 197.763L261.025 195.917ZM259.886 194.997C259.629 194.619 259.46 194.078 259.46 193.3H257.46C257.46 194.362 257.691 195.328 258.234 196.123L259.886 194.997ZM259.46 193.3V186.86H257.46V193.3H259.46ZM259.46 186.86C259.46 185.665 259.781 184.927 260.267 184.466L258.893 183.014C257.886 183.966 257.46 185.308 257.46 186.86H259.46ZM260.261 184.472C260.79 183.981 261.561 183.68 262.7 183.68V181.68C261.199 181.68 259.89 182.086 258.899 183.008L260.261 184.472ZM262.7 183.68C263.827 183.68 264.557 183.993 265.04 184.494L266.48 183.106C265.523 182.114 264.213 181.68 262.7 181.68V183.68ZM265.047 184.501C265.553 185.017 265.86 185.767 265.86 186.88H267.86C267.86 185.38 267.434 184.077 266.473 183.099L265.047 184.501ZM265.86 186.88V193.3H267.86V186.88H265.86ZM266.76 186.68C266.76 185.505 266.406 184.457 265.552 183.722L264.248 185.238C264.54 185.49 264.76 185.908 264.76 186.68H266.76ZM265.561 183.73C264.776 183.038 263.773 182.74 262.66 182.74V184.74C263.413 184.74 263.904 184.935 264.239 185.23L265.561 183.73ZM262.66 182.74C261.546 182.74 260.544 183.038 259.759 183.73L261.081 185.23C261.416 184.935 261.907 184.74 262.66 184.74V182.74ZM259.759 183.73C258.922 184.467 258.58 185.512 258.58 186.68H260.58C260.58 185.901 260.798 185.48 261.081 185.23L259.759 183.73ZM258.58 186.68V193.28H260.58V186.68H258.58ZM258.58 193.28C258.58 194.439 258.94 195.468 259.788 196.198L261.092 194.682C260.793 194.425 260.58 194.015 260.58 193.28H258.58ZM259.807 196.214C260.603 196.865 261.579 197.16 262.66 197.16V195.16C261.954 195.16 261.451 194.975 261.073 194.666L259.807 196.214ZM262.66 197.16C263.743 197.16 264.722 196.878 265.511 196.236L264.249 194.684C263.891 194.975 263.39 195.16 262.66 195.16V197.16ZM265.513 196.234C266.398 195.51 266.76 194.449 266.76 193.26H264.76C264.76 194.044 264.535 194.45 264.247 194.686L265.513 196.234ZM266.76 193.26V186.68H264.76V193.26H266.76ZM280.657 185.06L281.5 184.523L279.657 181.627V185.06H280.657ZM280.657 197V198H281.657V197H280.657ZM279.537 197H278.537V198H279.537V197ZM279.537 183V182H278.537V183H279.537ZM280.657 183L281.5 182.463L281.205 182H280.657V183ZM288.257 194.94L287.413 195.477L289.257 198.373V194.94H288.257ZM288.257 183V182H287.257V183H288.257ZM289.377 183H290.377V182H289.377V183ZM289.377 197V198H290.377V197H289.377ZM288.257 197L287.413 197.537L287.708 198H288.257V197ZM279.657 185.06V197H281.657V185.06H279.657ZM280.657 196H279.537V198H280.657V196ZM280.537 197V183H278.537V197H280.537ZM279.537 184H280.657V182H279.537V184ZM279.813 183.537L287.413 195.477L289.1 194.403L281.5 182.463L279.813 183.537ZM289.257 194.94V183H287.257V194.94H289.257ZM288.257 184H289.377V182H288.257V184ZM288.377 183V197H290.377V183H288.377ZM289.377 196H288.257V198H289.377V196ZM289.1 196.463L281.5 184.523L279.813 185.597L287.413 197.537L289.1 196.463ZM302.664 193.44L303.66 193.352L303.58 192.44H302.664V193.44ZM303.164 194.74L302.349 195.319L302.355 195.327L302.361 195.336L303.164 194.74ZM304.404 195.76L303.948 196.65L303.962 196.657L303.975 196.663L304.404 195.76ZM308.784 195.46L309.339 196.292L309.343 196.29L308.784 195.46ZM309.324 191.8L308.556 192.44L308.561 192.447L308.567 192.453L309.324 191.8ZM308.084 190.86L307.647 191.759L307.657 191.764L307.667 191.769L308.084 190.86ZM306.064 190.04L306.403 189.099L306.393 189.096L306.064 190.04ZM303.844 189.16L303.388 190.05L303.401 190.057L303.414 190.063L303.844 189.16ZM302.444 188.04L301.663 188.665L301.669 188.671L301.674 188.678L302.444 188.04ZM302.384 184.58L303.226 185.12L303.232 185.11L302.384 184.58ZM303.884 183.3L304.317 184.202L304.325 184.198L303.884 183.3ZM308.004 182.94L307.791 183.917V183.917L308.004 182.94ZM309.304 183.4L310.257 183.705L310.522 182.879L309.741 182.5L309.304 183.4ZM308.964 184.46L308.511 185.351L309.558 185.884L309.917 184.765L308.964 184.46ZM303.504 187.52L302.768 188.197L302.775 188.205L302.782 188.212L303.504 187.52ZM304.624 188.3L304.211 189.21L304.221 189.215L304.624 188.3ZM306.504 189.02L306.174 189.964L306.18 189.966L306.504 189.02ZM308.864 189.96L308.425 190.858L308.433 190.862L308.441 190.866L308.864 189.96ZM310.384 191.18L309.594 191.793L309.602 191.804L309.611 191.814L310.384 191.18ZM309.844 196.12L310.532 196.846L310.533 196.845L309.844 196.12ZM303.704 196.68L303.23 197.56L303.24 197.566L303.25 197.571L303.704 196.68ZM302.104 195.26L301.252 195.783L301.259 195.794L301.266 195.806L302.104 195.26ZM301.524 193.44V192.44H300.481L300.525 193.483L301.524 193.44ZM301.668 193.528C301.726 194.177 301.965 194.778 302.349 195.319L303.98 194.161C303.777 193.876 303.683 193.609 303.66 193.352L301.668 193.528ZM302.361 195.336C302.771 195.888 303.31 196.323 303.948 196.65L304.861 194.87C304.459 194.664 304.171 194.418 303.967 194.144L302.361 195.336ZM303.975 196.663C304.662 196.989 305.418 197.14 306.224 197.14V195.14C305.67 195.14 305.214 195.037 304.833 194.857L303.975 196.663ZM306.224 197.14C307.398 197.14 308.457 196.88 309.339 196.292L308.23 194.628C307.751 194.947 307.104 195.14 306.224 195.14V197.14ZM309.343 196.29C310.369 195.599 310.824 194.518 310.824 193.26H308.824C308.824 194.002 308.586 194.388 308.226 194.63L309.343 196.29ZM310.824 193.26C310.824 192.472 310.595 191.742 310.082 191.147L308.567 192.453C308.721 192.631 308.824 192.875 308.824 193.26H310.824ZM310.093 191.16C309.66 190.64 309.125 190.237 308.502 189.951L307.667 191.769C308.031 191.936 308.322 192.16 308.556 192.44L310.093 191.16ZM308.522 189.961C307.982 189.698 307.271 189.411 306.403 189.099L305.726 190.981C306.564 191.282 307.2 191.542 307.647 191.759L308.522 189.961ZM306.393 189.096C305.49 188.782 304.788 188.502 304.274 188.257L303.414 190.063C304.021 190.351 304.798 190.658 305.736 190.984L306.393 189.096ZM304.3 188.27C303.873 188.051 303.513 187.763 303.214 187.402L301.674 188.678C302.149 189.251 302.723 189.709 303.388 190.05L304.3 188.27ZM303.225 187.415C303.024 187.163 302.884 186.799 302.884 186.24H300.884C300.884 187.147 301.118 187.983 301.663 188.665L303.225 187.415ZM302.884 186.24C302.884 185.855 302.99 185.488 303.226 185.12L301.542 184.04C301.112 184.712 300.884 185.452 300.884 186.24H302.884ZM303.232 185.11C303.449 184.764 303.791 184.454 304.317 184.202L303.452 182.398C302.645 182.786 301.987 183.33 301.536 184.05L303.232 185.11ZM304.325 184.198C304.833 183.949 305.506 183.8 306.384 183.8V181.8C305.29 181.8 304.296 181.984 303.444 182.402L304.325 184.198ZM306.384 183.8C306.997 183.8 307.46 183.844 307.791 183.917L308.218 181.963C307.696 181.849 307.078 181.8 306.384 181.8V183.8ZM307.791 183.917C308.132 183.992 308.491 184.117 308.868 184.3L309.741 182.5C309.238 182.257 308.73 182.075 308.218 181.963L307.791 183.917ZM308.352 183.095L308.012 184.155L309.917 184.765L310.257 183.705L308.352 183.095ZM309.418 183.569C308.504 183.104 307.5 182.88 306.424 182.88V184.88C307.215 184.88 307.904 185.043 308.511 185.351L309.418 183.569ZM306.424 182.88C305.268 182.88 304.226 183.12 303.393 183.699L304.535 185.341C304.929 185.067 305.527 184.88 306.424 184.88V182.88ZM303.393 183.699C302.506 184.317 302.044 185.219 302.044 186.3H304.044C304.044 185.861 304.196 185.577 304.535 185.341L303.393 183.699ZM302.044 186.3C302.044 187.014 302.281 187.667 302.768 188.197L304.24 186.843C304.114 186.706 304.044 186.546 304.044 186.3H302.044ZM302.782 188.212C303.185 188.632 303.665 188.963 304.211 189.21L305.038 187.39C304.703 187.237 304.437 187.048 304.226 186.828L302.782 188.212ZM304.221 189.215C304.709 189.43 305.364 189.68 306.174 189.964L306.835 188.076C306.045 187.8 305.446 187.57 305.028 187.385L304.221 189.215ZM306.18 189.966C307.133 190.292 307.877 190.59 308.425 190.858L309.304 189.062C308.652 188.743 307.822 188.414 306.828 188.074L306.18 189.966ZM308.441 190.866C308.895 191.078 309.276 191.382 309.594 191.793L311.175 190.567C310.666 189.911 310.034 189.402 309.287 189.054L308.441 190.866ZM309.611 191.814C309.865 192.123 310.024 192.546 310.024 193.16H312.024C312.024 192.174 311.757 191.277 311.157 190.546L309.611 191.814ZM310.024 193.16C310.024 194.152 309.717 194.862 309.156 195.395L310.533 196.845C311.545 195.884 312.024 194.621 312.024 193.16H310.024ZM309.156 195.394C308.646 195.878 307.746 196.22 306.244 196.22V198.22C307.996 198.22 309.496 197.828 310.532 196.846L309.156 195.394ZM306.244 196.22C305.378 196.22 304.694 196.062 304.158 195.789L303.25 197.571C304.128 198.018 305.138 198.22 306.244 198.22V196.22ZM304.178 195.8C303.61 195.493 303.211 195.127 302.942 194.714L301.266 195.806C301.744 196.539 302.412 197.12 303.23 197.56L304.178 195.8ZM302.957 194.737C302.677 194.281 302.542 193.838 302.523 193.397L300.525 193.483C300.56 194.295 300.812 195.066 301.252 195.783L302.957 194.737ZM301.524 194.44H302.664V192.44H301.524V194.44Z" fill="#00AC83"/>
<path d="M35.853 110.328C39.8103 110.328 43.5437 111.075 47.053 112.568C50.5623 114.061 53.6237 116.115 56.237 118.728C58.8503 121.341 60.9037 124.403 62.397 127.912C63.965 131.421 64.749 135.155 64.749 139.112C64.749 143.069 63.965 146.803 62.397 150.312C60.9037 153.821 58.8503 156.883 56.237 159.496C53.6237 162.109 50.5623 164.163 47.053 165.656C43.5437 167.149 39.8103 167.896 35.853 167.896C28.1623 167.896 22.301 165.059 18.269 159.384V167H3.485V88.6H18.381V139.112C18.381 141.277 18.7917 143.293 19.613 145.16C20.4343 147.027 21.517 148.669 22.861 150.088C24.2797 151.432 25.9223 152.515 27.789 153.336C29.7303 154.157 31.7837 154.568 33.949 154.568C36.0397 154.568 38.0183 154.157 39.885 153.336C41.8263 152.515 43.469 151.432 44.813 150.088C46.2317 148.669 47.3517 147.027 48.173 145.16C48.9943 143.293 49.405 141.277 49.405 139.112C49.405 136.947 48.9943 134.931 48.173 133.064C47.3517 131.197 46.2317 129.555 44.813 128.136C43.469 126.717 41.8263 125.635 39.885 124.888C38.0183 124.067 36.0397 123.656 33.949 123.656C31.933 123.656 29.917 124.067 27.901 124.888L27.789 125L27.677 124.776L22.189 114.696L22.301 114.584C25.9597 111.747 30.477 110.328 35.853 110.328ZM120.623 110.104C124.655 110.104 128.426 110.888 131.935 112.456C135.444 113.949 138.506 116.003 141.119 118.616C143.732 121.229 145.786 124.291 147.279 127.8C148.847 131.309 149.631 135.043 149.631 139C149.631 142.957 148.847 146.691 147.279 150.2C145.786 153.709 143.732 156.771 141.119 159.384C138.506 161.997 135.444 164.088 131.935 165.656C128.426 167.149 124.655 167.896 120.623 167.896C116.591 167.896 112.82 167.149 109.311 165.656C105.802 164.088 102.74 161.997 100.127 159.384C97.5137 156.771 95.423 153.709 93.855 150.2C92.3617 146.691 91.615 142.957 91.615 139C91.615 135.043 92.3617 131.309 93.855 127.8C95.423 124.291 97.5137 121.229 100.127 118.616C102.74 116.003 105.802 113.949 109.311 112.456C112.82 110.888 116.591 110.104 120.623 110.104ZM120.623 154.568C122.49 154.568 124.207 154.157 125.775 153.336C127.418 152.515 128.836 151.395 130.031 149.976C131.3 148.483 132.271 146.803 132.943 144.936C133.69 142.995 134.063 140.904 134.063 138.664C134.063 136.573 133.69 134.595 132.943 132.728C132.271 130.787 131.3 129.144 130.031 127.8C128.836 126.381 127.418 125.261 125.775 124.44C124.207 123.619 122.49 123.208 120.623 123.208C118.756 123.208 117.002 123.619 115.359 124.44C113.716 125.261 112.26 126.381 110.991 127.8C109.796 129.144 108.826 130.787 108.079 132.728C107.407 134.595 107.071 136.573 107.071 138.664C107.071 140.904 107.407 142.995 108.079 144.936C108.826 146.803 109.796 148.483 110.991 149.976C112.26 151.395 113.716 152.515 115.359 153.336C117.002 154.157 118.756 154.568 120.623 154.568Z" fill="#2A4D4F"/>
<path d="M172.1 88.6L222.612 161.4V167H206.26L172.1 117.72V167H155.748V88.6H172.1ZM206.26 88.6H222.612V147.288L206.26 135.528V88.6ZM257.891 110.104C261.849 110.104 265.582 110.888 269.091 112.456C272.601 113.949 275.662 116.003 278.275 118.616C280.889 121.229 282.942 124.291 284.435 127.8C286.003 131.309 286.787 135.08 286.787 139.112C286.787 141.277 286.563 143.368 286.115 145.384L286.003 145.608H257.555L250.387 134.184H271.667C270.622 131.048 268.867 128.472 266.403 126.456C264.014 124.44 261.177 123.432 257.891 123.432C255.875 123.432 253.971 123.843 252.179 124.664C250.387 125.485 248.819 126.605 247.475 128.024C246.206 129.368 245.198 131.011 244.451 132.952C243.705 134.819 243.331 136.872 243.331 139.112C243.331 140.829 243.667 142.621 244.339 144.488C245.011 146.28 245.982 147.923 247.251 149.416C248.521 150.909 250.051 152.179 251.843 153.224C253.635 154.195 255.651 154.68 257.891 154.68C259.907 154.68 261.737 154.419 263.379 153.896C265.097 153.299 266.702 152.029 268.195 150.088L268.307 149.976L268.531 150.088L281.523 155.8L281.299 156.024C278.611 159.757 275.177 162.669 270.995 164.76C266.889 166.851 262.521 167.896 257.891 167.896C253.859 167.896 250.051 167.149 246.467 165.656C242.958 164.163 239.897 162.109 237.283 159.496C234.67 156.883 232.579 153.821 231.011 150.312C229.518 146.803 228.771 143.069 228.771 139.112C228.771 135.08 229.518 131.309 231.011 127.8C232.579 124.291 234.67 121.229 237.283 118.616C239.897 116.003 242.958 113.949 246.467 112.456C250.051 110.888 253.859 110.104 257.891 110.104ZM315.959 133.736C318.423 134.557 320.663 135.416 322.679 136.312C324.77 137.133 326.562 138.141 328.055 139.336C329.623 140.531 330.818 141.987 331.639 143.704C332.535 145.347 332.983 147.325 332.983 149.64V149.752C332.983 155.427 331.079 159.869 327.271 163.08C323.538 166.291 318.274 167.896 311.479 167.896C307.223 167.896 303.042 167.187 298.935 165.768C294.828 164.275 290.983 162.184 287.399 159.496L287.287 159.384L287.399 159.272L295.015 147.288L295.127 147.4C297.367 149.789 299.906 151.619 302.743 152.888C305.58 154.083 308.604 154.68 311.815 154.68C316.22 154.68 318.423 153.261 318.423 150.424C318.423 149.08 317.714 148.072 316.295 147.4C314.876 146.728 313.196 146.093 311.255 145.496C310.882 145.347 310.508 145.272 310.135 145.272C309.836 145.197 309.5 145.085 309.127 144.936C306.887 144.339 304.647 143.704 302.407 143.032C300.167 142.285 298.151 141.315 296.359 140.12C294.567 138.851 293.074 137.283 291.879 135.416C290.759 133.475 290.199 131.011 290.199 128.024V127.8C290.199 125.187 290.684 122.797 291.655 120.632C292.626 118.467 294.007 116.6 295.799 115.032C297.591 113.464 299.756 112.269 302.295 111.448C304.834 110.552 307.634 110.104 310.695 110.104C314.279 110.104 317.9 110.664 321.559 111.784C325.218 112.829 328.615 114.397 331.751 116.488V116.712L324.919 129.144L324.807 129.032C323.09 127.315 320.962 125.971 318.423 125C315.884 123.955 313.196 123.432 310.359 123.432C309.836 123.432 309.239 123.469 308.567 123.544C307.895 123.619 307.26 123.805 306.663 124.104C306.14 124.403 305.692 124.813 305.319 125.336C304.946 125.784 304.759 126.456 304.759 127.352C304.759 128.024 305.058 128.659 305.655 129.256C306.252 129.779 306.999 130.301 307.895 130.824C308.866 131.272 309.911 131.72 311.031 132.168C312.226 132.616 313.383 133.027 314.503 133.4C314.727 133.4 314.951 133.437 315.175 133.512C315.474 133.587 315.735 133.661 315.959 133.736ZM377.586 116.824V129.256H369.298L362.354 116.824H377.586ZM360.45 147.848C360.45 149.565 361.047 151.021 362.242 152.216C363.511 153.411 365.005 154.008 366.722 154.008H377.586V167H366.722C363.81 167 361.047 166.477 358.434 165.432C355.895 164.312 353.655 162.819 351.714 160.952C349.847 159.011 348.354 156.771 347.234 154.232C346.114 151.693 345.554 148.968 345.554 146.056V129.256H337.49V116.824H345.554V96.552H360.45V147.848Z" fill="#008061"/>
<path d="M59.675 175.977C61.051 169.083 61.04 169.188 65.205 161.888C69.637 154.117 72.853 146.537 76.853 144.864C81.859 142.771 84.962 148.936 88.472 157.475C89.432 159.812 90.544 161.629 92.564 164.24C94.822 165.869 95.361 164.705 94.822 163.522C93.565 159.934 82.839 141.733 84.954 127.208C88.963 98.9285 106.756 78.8675 106.405 79.2495L105.753 80.0635C105.753 80.0635 107.598 78.1655 108.316 78.1095C110.149 77.9665 109.172 74.0395 104.386 77.2745L104.449 77.2955C101.518 79.2495 96.189 86.5835 93.867 90.3685C87.802 100.247 84.81 107.592 79.538 108.721C73.096 110.099 68.361 103.577 64.846 100.196C61.531 97.0065 54.464 92.1705 54.464 92.1705C52.365 90.7065 51.261 92.1675 51.919 93.6295C52.385 94.6625 54.464 95.6945 54.464 95.6945C54.464 95.6945 74.753 108.255 74.704 128.91C74.674 141.965 56.613 164.926 56.613 175.978C56.615 179.546 59.156 178.894 59.675 175.977Z" fill="#2A4D4F" stroke="#2A4D4F" stroke-miterlimit="10"/>
<path d="M77.504 99.4585C81.8654 99.4585 85.401 95.9229 85.401 91.5615C85.401 87.2001 81.8654 83.6645 77.504 83.6645C73.1426 83.6645 69.607 87.2001 69.607 91.5615C69.607 95.9229 73.1426 99.4585 77.504 99.4585Z" fill="#2A4D4F"/>
<path d="M98.424 74.5388C98.424 74.5388 83.4222 69.5173 97.1695 51.9914C97.1695 51.9914 113.684 62.4691 101.917 74.2955L99.7908 64.7941L98.424 74.5388Z" fill="#80C41C"/>
<path d="M113.181 86.0703C113.181 86.0703 121.978 80.1392 125.691 94.609C125.691 94.609 113.375 99.1184 111.886 88.0288L117.809 90.7772L113.181 86.0703Z" fill="#80C41C"/>
<path d="M44.9121 78.9419C44.9121 78.9419 29.2514 81.1731 33.6892 59.3457C33.6892 59.3457 53.1485 61.3165 47.9246 77.1611L41.7689 69.6183L44.9121 78.9419Z" fill="#00AC83"/>
<path d="M65.73 74.186C65.73 74.186 54.1067 73.4721 60.5442 58.3929C60.5442 58.3929 74.2837 62.6984 68.1683 73.3487L64.8467 66.9968L65.73 74.186Z" fill="#00AC83"/>
<path d="M72.0152 47.7347C72.0152 47.7347 52.3165 42.7946 68.1722 19C68.1722 19 90.3514 30.7733 76.4616 47.0769L72.7976 35.1272L72.0152 47.7347Z" fill="#00AC83"/>
<path d="M54.0469 84.9899C54.0469 84.9899 50.4125 78.9218 60.1779 76.9682C60.1779 76.9682 62.7411 85.328 55.3045 85.9241L57.3444 82.0786L54.0469 84.9899Z" fill="#00AC83"/>
<path d="M114.022 58.8468C114.022 58.8468 108.577 54.3288 117.14 49.2431C117.14 49.2431 122.334 56.2775 115.518 59.3084L116.165 55.0039L114.022 58.8468Z" fill="#00AC83"/>
<path d="M117.474 72.0398C117.474 72.0398 124.079 68.6128 125.506 78.9928C125.506 78.9928 116.561 81.1475 116.414 73.3011L120.321 75.6928L117.474 72.0398Z" fill="#00AC45"/>
<path d="M88.2584 39.225C88.2584 39.225 81.4771 31.0677 95.5013 25.9239C95.5013 25.9239 101.221 37.7281 90.3354 40.3184L92.4753 34.1492L88.2584 39.225Z" fill="#00AC83"/>
<path d="M55.742 41.1672C55.742 41.1672 48.2966 40.4811 52.7221 30.9292C52.7221 30.9292 61.4558 33.9613 57.3241 40.676L55.3162 36.5357L55.742 41.1672Z" fill="#80C41C"/>
<path d="M91.4385 10.7409C91.4385 10.7409 86.0842 5.5222 95.5347 0.884017C95.5347 0.884017 100.414 8.73674 92.9772 11.3549L94.0224 6.87359L91.4385 10.7409Z" fill="#00AC83"/>
<path d="M99.9597 46.549C99.9597 46.549 91.4642 32.1175 114.622 27.6661C114.622 27.6661 120.537 47.5079 102.922 48.7803L107.823 39.7122L99.9597 46.549Z" fill="#00710B"/>
<path d="M45.668 48.0227C45.668 48.0227 36.0174 54.5412 31.9301 38.6621C31.9301 38.6621 45.4459 33.7011 47.0885 45.8729L40.5835 42.863L45.668 48.0227Z" fill="#00710B"/>
<path d="M90.0428 55.1453C90.0428 55.1453 83.0435 56.1785 84.9824 46.4102C84.9824 46.4102 93.6871 47.2465 91.3884 54.3431L88.6176 50.9858L90.0428 55.1453Z" fill="#80C41C"/>
<path d="M78.5443 74.0564C78.5443 74.0564 74.8595 68.9414 83.3832 66.4721C83.3832 66.4721 86.2869 73.7011 79.731 74.7893L81.2528 71.223L78.5443 74.0564Z" fill="#00710B"/>
<path d="M47.8182 94.6701C47.8182 94.6701 52.9446 100.062 43.3693 104.315C43.3693 104.315 38.8167 96.3188 46.3138 94L45.1032 98.4181L47.8182 94.6701Z" fill="#80C41C"/>
<path d="M154.881 31.0859C154.881 31.0859 152.53 15.4425 174.39 19.7137C174.39 19.7137 172.57 39.1865 156.686 34.086L164.181 27.8723L154.881 31.0859Z" fill="#00AC83"/>
<path d="M214.697 30.8823C214.697 30.8823 211.995 19.5545 228.297 21.3242C228.297 21.3242 228.177 35.7212 216.208 32.9717L221.318 27.9439L214.697 30.8823Z" fill="#80C41C"/>
<path d="M298.645 38.7608C298.645 38.7608 301.674 32.3669 308.722 39.405C308.722 39.405 303.191 46.1765 298.566 40.3231L302.899 39.885L298.645 38.7608Z" fill="#00AC83"/>
<path d="M240.413 46.7355C240.413 46.7355 247.02 43.3084 248.446 53.6884C248.446 53.6884 239.501 55.8431 239.355 47.9967L243.262 50.3872L240.413 46.7355Z" fill="#00710B"/>
<path d="M58.7189 25.2371C58.7189 25.2371 47.169 26.7193 50.6578 10.6982C50.6578 10.6982 64.9622 12.3445 60.9576 23.9549L56.5 18.341L58.7189 25.2371Z" fill="#00710B"/>
<path d="M106.347 23.1198C106.347 23.1198 96.0216 20.6886 104.121 8.13906C104.121 8.13906 115.794 14.1183 108.666 22.7409L106.661 16.5272L106.347 23.1198Z" fill="#80C41C"/>
<path d="M104.179 92.5211C104.179 92.5211 111.612 92.8777 107.629 102.569C107.629 102.569 98.8124 99.9343 102.629 93.0789L104.806 97.1082L104.179 92.5211Z" fill="#00AC83"/>
<path d="M36.8913 31.1673C36.8913 31.1673 30.8122 29.5013 35.8905 22.2275C35.8905 22.2275 42.6928 26.0273 38.2748 30.9934L37.2196 27.2627L36.8913 31.1673Z" fill="#00AC45"/>
<path d="M74.1137 17.5473C74.1137 17.5473 64.1737 11.4801 76.9155 1.16102C76.9155 1.16102 87.0473 11.392 76.6598 17.9443L76.6942 10.7787L74.1137 17.5473Z" fill="#00AC83"/>
<path d="M26.8746 60.592C26.8746 60.592 18.1927 68.3533 12 53.1689C12 53.1689 24.7248 46.4308 27.9926 58.2694L21.141 56.1641L26.8746 60.592Z" fill="#80C41C"/>
<path d="M133.787 75.9379C133.787 75.9379 137.289 70.2425 143.186 77.578C143.186 77.578 137.295 83.3721 133.553 77.3978L137.666 77.4311L133.787 75.9379Z" fill="#80C41C"/>
<path d="M116.248 18.0492C116.248 18.0492 113.066 14.8412 118.825 12.1371C118.825 12.1371 121.69 16.93 117.171 18.4358L117.847 15.7382L116.248 18.0492Z" fill="#00AC45"/>
<path d="M154.85 59.2863C154.85 59.2863 161.766 49.9182 170.925 63.5192C170.925 63.5192 159.843 72.7095 154.228 61.7902L161.365 62.4529L154.85 59.2863Z" fill="#80C41C"/>
<path d="M259.718 27.8094C259.718 27.8094 264.832 17.0185 276.21 28.1476C276.21 28.1476 266.986 39.7493 259.553 30.3998L266.659 29.3644L259.718 27.8094Z" fill="#00AC83"/>
<path d="M276.319 54.2275C276.319 54.2275 280.513 48.0016 287 56.367C287 56.367 280.074 62.6235 276 55.8478L280.699 56.0199L276.319 54.2275Z" fill="#80C41C"/>
<path d="M118.101 64.7754C118.101 64.7754 118.076 48.9567 139.071 56.3971C139.071 56.3971 134.407 75.3911 119.445 68.0075L127.771 62.9637L118.101 64.7754Z" fill="#00710B"/>
<path d="M48.2266 59.9086C48.2266 59.9086 43.7844 54.4019 53.1851 51.1136C53.1851 51.1136 56.8819 59.0385 49.5995 60.6585L51.0872 56.568L48.2266 59.9086Z" fill="#00710B"/>
<path d="M42.635 87.0993C42.635 87.0993 41.6576 97.6645 28.1072 91.378C28.1072 91.378 32.413 78.9889 41.9402 84.857L36.0622 87.7028L42.635 87.0993Z" fill="#00710B"/>
<path d="M69.8274 60.409C69.8274 60.409 68.1539 53.5363 78.06 54.5643C78.06 54.5643 78.0304 63.3091 70.7517 61.6739L73.8394 58.606L69.8274 60.409Z" fill="#00710B"/>
<path d="M190.135 55.5505C190.135 55.5505 192.676 44.1857 206.551 52.9256C206.551 52.9256 200.129 65.812 190.58 58.0915L197.376 55.8133L190.135 55.5505Z" fill="#00710B"/>
<path d="M320.762 43.6637C320.762 43.6637 320.614 33.0567 334.753 37.8684C334.753 37.8684 331.787 50.6462 321.69 45.8209L327.232 42.3667L320.762 43.6637Z" fill="#00710B"/>
<path d="M81.4858 24.3227C81.4858 24.3227 79.8112 17.45 89.7185 18.478C89.7185 18.478 89.6889 27.2215 82.4089 25.5876L85.4979 22.5196L81.4858 24.3227Z" fill="#00710B"/>
<path d="M123.029 42.6505C123.029 42.6505 116.84 34.0353 131.191 29.8924C131.191 29.8924 136.066 42.0705 125.026 43.8883L127.597 37.8856L123.029 42.6505Z" fill="#00710B"/>
<path d="M26.7336 47.7043C26.7336 47.7043 19.8547 49.3555 20.9148 39.4519C20.9148 39.4519 29.6596 39.5123 27.9985 46.7836L24.9404 43.686L26.7336 47.7043Z" fill="#00710B"/>
<path d="M25.2363 79.3682C25.2363 79.3682 27.7045 85.9151 17.8576 86.0965C17.8576 86.0965 16.8358 77.5084 24.1774 78.239L21.5142 81.6229L25.2363 79.3682Z" fill="#80C41C"/>
</svg>
